<svg width="56" height="39" viewBox="0 0 56 39" fill="none" xmlns="http://www.w3.org/2000/svg">
<g clip-path="url(#clip0_53_1864)">
<path fill-rule="evenodd" clip-rule="evenodd" d="M56 28.7303C56 34.1922 43.4707 38.6204 28.0015 38.6204C12.5322 38.6204 0 34.1922 0 28.7303C0 23.2684 12.5293 18.8402 28.0015 18.8402C43.4736 18.8402 56 23.2684 56 28.7303Z" fill="#E2CAB3"/>
<path fill-rule="evenodd" clip-rule="evenodd" d="M56 27.6394C56 33.1013 43.4707 37.5295 28.0015 37.5295C12.5322 37.5295 0 33.1013 0 27.6394C0 22.1775 12.5293 17.7493 28.0015 17.7493C43.4736 17.7493 56 22.1775 56 27.6394Z" fill="white"/>
<path fill-rule="evenodd" clip-rule="evenodd" d="M56 27.483C56 32.774 43.4707 37.0627 28.0015 37.0627C12.5322 37.0627 0 32.774 0 27.483C0 22.1919 12.5293 17.9061 28.0015 17.9061C43.4736 17.9061 56 22.1948 56 27.483Z" fill="#E7D8C8"/>
<path fill-rule="evenodd" clip-rule="evenodd" d="M54.7584 27.4831C54.7584 31.2592 44.0357 34.3176 30.8101 34.3176C17.5844 34.3176 6.85876 31.2592 6.85876 27.4831C6.85876 23.7071 17.5815 20.6486 30.8101 20.6486C44.0386 20.6486 54.7584 23.7099 54.7584 27.4831Z" fill="#E2CAB3"/>
<path d="M52.7394 27.728C52.2295 25.3929 49.7469 24.4047 47.7859 24.2481C46.5767 24.1541 45.3675 24.4047 44.1612 24.4702C43.4909 24.5077 42.8185 24.481 42.1536 24.3905C41.4193 24.2908 40.7171 24.0317 39.977 23.9719C38.692 23.8694 37.4187 24.3051 36.2211 24.7607C34.8138 25.2989 33.4064 25.7887 31.9641 26.2045C29.119 27.0516 26.1879 27.593 23.2228 27.8191C22.0167 27.9264 20.8028 27.9197 19.598 27.7992C18.753 27.6967 17.9197 27.5144 17.0747 27.4176C15.5945 27.2553 13.954 27.4461 13.3567 29.1462C12.9089 29.1447 12.4672 29.2482 12.0688 29.448C11.4656 29.7015 10.6585 30.1514 10.3468 30.8035C9.69698 32.1676 11.8036 32.703 12.5845 32.8482C13.3276 32.9849 14.0764 33.0333 14.8223 33.1102C15.8596 33.2184 16.693 33.6997 17.57 34.2863C19.7816 35.7642 22.7332 35.8611 25.2508 35.6902C26.6394 35.5884 28.0123 35.3372 29.3446 34.9413C30.752 34.5312 32.2001 34.7789 33.622 35.0153C34.8435 35.2674 36.1119 35.1927 37.2934 34.7989C38.4822 34.386 39.5137 33.6313 40.5306 32.8738C41.7165 31.991 43.0656 31.9369 44.4613 31.8259C45.8372 31.7424 47.2025 31.5375 48.5406 31.2136C49.6639 30.9361 50.7577 30.5547 51.807 30.0745C52.6986 29.616 52.9492 28.7617 52.7394 27.728Z" fill="#EEBE30"/>
<path d="M44.7907 25.6975C44.7907 29.3768 36.7982 32.7969 27.174 32.7969C17.5498 32.7969 9.49316 29.1233 9.49316 25.4441C9.49316 21.7648 17.5498 19.4639 27.174 19.4639C36.7982 19.4639 44.7907 22.0183 44.7907 25.6975Z" fill="#E3AC8A"/>
<path d="M44.5985 24.9881C44.5985 28.6674 36.7983 31.6489 27.174 31.6489C17.5498 31.6489 9.7467 28.6674 9.7467 24.9881C9.7467 21.3089 17.5498 18.3245 27.174 18.3245C36.7983 18.3245 44.5985 21.3089 44.5985 24.9881Z" fill="#DA840D"/>
<path d="M39.8491 24.3561C39.8491 27.0871 34.0623 29.2969 26.9206 29.2969C19.7789 29.2969 13.9863 27.0871 13.9863 24.3561C13.9863 21.6252 19.7818 19.4154 26.9206 19.4154C34.0594 19.4154 39.8491 21.6423 39.8491 24.3561Z" fill="#F0A508"/>
<path d="M18.2199 26.1785C18.2199 26.4633 17.8906 26.7111 17.4827 26.7111C17.0748 26.7111 16.7484 26.4718 16.7484 26.1785C16.7484 25.8852 17.0777 25.646 17.4827 25.646C17.8877 25.646 18.2199 25.8852 18.2199 26.1785Z" fill="#DA840D"/>
<path d="M16.7485 23.9377C16.7446 24.0162 16.7171 24.0918 16.6696 24.1551C16.6221 24.2185 16.5566 24.2668 16.4813 24.2942C16.406 24.3215 16.3241 24.3267 16.2458 24.309C16.1675 24.2914 16.0962 24.2516 16.0408 24.1948C15.9853 24.1379 15.9482 24.0664 15.9339 23.9891C15.9196 23.9118 15.9289 23.8321 15.9605 23.7599C15.9921 23.6877 16.0447 23.6261 16.1117 23.5828C16.1788 23.5395 16.2573 23.5164 16.3377 23.5163C16.3931 23.5174 16.4476 23.5292 16.4983 23.551C16.549 23.5728 16.5947 23.6042 16.6329 23.6434C16.6711 23.6826 16.701 23.7287 16.7208 23.7793C16.7407 23.8298 16.7501 23.8836 16.7485 23.9377Z" fill="#DA840D"/>
<path d="M21.8533 26.8249C21.8626 26.9633 21.8292 27.1013 21.7573 27.2209C21.6854 27.3406 21.5783 27.4363 21.4501 27.4957C21.3218 27.5552 21.1782 27.5755 21.0379 27.5542C20.8976 27.5329 20.7672 27.4708 20.6634 27.3761C20.5597 27.2814 20.4875 27.1584 20.4562 27.0231C20.4248 26.8878 20.4359 26.7464 20.4878 26.6172C20.5398 26.4881 20.6302 26.3772 20.7475 26.299C20.8647 26.2208 21.0033 26.1788 21.1452 26.1785C21.2352 26.1754 21.3248 26.1897 21.4091 26.2206C21.4934 26.2514 21.5706 26.2982 21.6364 26.3582C21.7021 26.4183 21.7551 26.4904 21.7923 26.5705C21.8296 26.6505 21.8503 26.737 21.8533 26.8249Z" fill="#DA840D"/>
<path d="M20.3148 24.2596C20.3148 24.4362 20.1138 24.5814 19.869 24.5814C19.6243 24.5814 19.4203 24.4362 19.4203 24.2596C19.4203 24.0831 19.6213 23.9378 19.869 23.9378C20.1167 23.9378 20.3148 24.0802 20.3148 24.2596Z" fill="#DA840D"/>
<path d="M24.8195 25.7861C24.8301 25.8755 24.8127 25.966 24.7695 26.0456C24.7263 26.1251 24.6594 26.19 24.5777 26.2315C24.496 26.273 24.4032 26.2893 24.3118 26.2782C24.2204 26.2671 24.1346 26.229 24.0657 26.1691C23.9969 26.1093 23.9484 26.0304 23.9265 25.9429C23.9046 25.8554 23.9104 25.7635 23.9432 25.6794C23.9759 25.5952 24.0341 25.5228 24.1099 25.4716C24.1858 25.4205 24.2757 25.3931 24.3679 25.3931C24.4809 25.3876 24.5915 25.4258 24.676 25.4993C24.7605 25.5728 24.812 25.6758 24.8195 25.7861Z" fill="#DA840D"/>
<path d="M24.9917 28.1583C24.9917 28.3406 24.7761 28.4886 24.508 28.4886C24.2399 28.4886 24.0243 28.3406 24.0243 28.1583C24.0243 27.976 24.2428 27.828 24.508 27.828C24.7731 27.828 24.9917 27.976 24.9917 28.1583Z" fill="#DA840D"/>
<path d="M23.0626 24.6239C23.0574 24.6901 23.0325 24.7533 22.9909 24.8058C22.9493 24.8582 22.8928 24.8976 22.8285 24.9189C22.7642 24.9403 22.6949 24.9428 22.6292 24.926C22.5635 24.9092 22.5043 24.874 22.4589 24.8246C22.4135 24.7752 22.384 24.7139 22.3739 24.6483C22.3639 24.5826 22.3738 24.5156 22.4024 24.4554C22.431 24.3952 22.477 24.3445 22.5348 24.3097C22.5926 24.2748 22.6596 24.2574 22.7275 24.2594C22.8208 24.266 22.9078 24.3076 22.9703 24.3756C23.0328 24.4436 23.0659 24.5326 23.0626 24.6239Z" fill="#DA840D"/>
<path d="M28.08 25.3161C28.08 25.4983 27.8702 25.6464 27.6108 25.6464C27.3515 25.6464 27.1417 25.4983 27.1417 25.3161C27.1417 25.1338 27.3515 24.9886 27.6108 24.9886C27.8702 24.9886 28.08 25.1338 28.08 25.3161Z" fill="#DA840D"/>
<path d="M28.08 27.0211C28.08 27.1293 27.8702 27.2176 27.6108 27.2176C27.3515 27.2176 27.1417 27.1293 27.1417 27.0211C27.1417 26.9129 27.3515 26.8246 27.6108 26.8246C27.8702 26.8246 28.08 26.9129 28.08 27.0211Z" fill="#DA840D"/>
<path d="M31.2532 25.9137C31.2532 26.0589 31.0638 26.1785 30.8278 26.1785C30.5918 26.1785 30.4053 26.0589 30.4053 25.9137C30.4053 25.7685 30.5947 25.646 30.8278 25.646C31.0609 25.646 31.2532 25.7656 31.2532 25.9137Z" fill="#DA840D"/>
<path d="M30.746 27.8166C30.7659 27.9053 30.7572 27.9979 30.721 28.0815C30.6847 28.1652 30.6228 28.2358 30.5438 28.2835C30.4648 28.3313 30.3725 28.3539 30.2797 28.3483C30.187 28.3426 30.0983 28.309 30.026 28.2519C29.9537 28.1949 29.9012 28.1173 29.8759 28.0299C29.8507 27.9425 29.8538 27.8496 29.8848 27.764C29.9159 27.6784 29.9734 27.6044 30.0493 27.552C30.1253 27.4997 30.216 27.4718 30.309 27.472C30.4134 27.4624 30.5176 27.493 30.5992 27.5574C30.6809 27.6218 30.7336 27.7148 30.746 27.8166Z" fill="#DA840D"/>
<path d="M34.2777 27.2638C34.2596 27.3487 34.2171 27.4268 34.1553 27.4891C34.0935 27.5513 34.015 27.5952 33.9287 27.6155C33.8425 27.6359 33.7521 27.6319 33.668 27.6041C33.584 27.5762 33.5098 27.5257 33.4539 27.4583C33.3981 27.3909 33.363 27.3093 33.3527 27.2232C33.3423 27.1371 33.3572 27.0498 33.3956 26.9716C33.4339 26.8934 33.4942 26.8275 33.5694 26.7814C33.6446 26.7353 33.7316 26.711 33.8203 26.7114C33.9554 26.7264 34.0791 26.7928 34.1647 26.8961C34.2502 26.9994 34.2908 27.1315 34.2777 27.2638Z" fill="#DA840D"/>
<path d="M34.0242 24.7751C34.0242 24.889 33.8756 24.9801 33.692 24.9801C33.5085 24.9801 33.3628 24.889 33.3628 24.7751C33.3628 24.6612 33.5114 24.5729 33.692 24.5729C33.8727 24.5729 34.0242 24.6726 34.0242 24.7751Z" fill="#DA840D"/>
<path d="M36.8214 25.3813C36.8214 25.8227 36.6204 26.1787 36.3756 26.1787C36.1308 26.1787 35.9269 25.8227 35.9269 25.3813C35.9269 24.94 36.1279 24.5811 36.3756 24.5811C36.6233 24.5811 36.8214 24.94 36.8214 25.3813Z" fill="#DA840D"/>
<path d="M37.9435 24.5698C37.9435 24.6264 37.9205 24.6808 37.8795 24.7208C37.8385 24.7609 37.783 24.7834 37.725 24.7834C37.667 24.7834 37.6115 24.7609 37.5705 24.7208C37.5295 24.6808 37.5065 24.6264 37.5065 24.5698C37.5065 24.5131 37.5295 24.4588 37.5705 24.4188C37.6115 24.3787 37.667 24.3562 37.725 24.3562C37.7827 24.357 37.8379 24.3797 37.8787 24.4196C37.9195 24.4595 37.9428 24.5134 37.9435 24.5698Z" fill="#DA840D"/>
<path d="M30.5947 23.8893C30.5947 24.0915 30.3208 24.2595 29.9857 24.2595C29.6506 24.2595 29.3767 24.0915 29.3767 23.8893C29.3767 23.6871 29.6477 23.5163 29.9857 23.5163C30.3237 23.5163 30.5947 23.6843 30.5947 23.8893Z" fill="#DA840D"/>
<path d="M19.1696 21.9696C19.1696 22.0949 18.9569 22.1974 18.6947 22.1974C18.4324 22.1974 18.2197 22.0949 18.2197 21.9696C18.2197 21.8443 18.4324 21.7418 18.6947 21.7418C18.9569 21.7418 19.1696 21.8443 19.1696 21.9696Z" fill="#DA840D"/>
<path d="M21.9668 21.5115C21.9668 21.6397 21.7249 21.7422 21.4277 21.7422C21.1305 21.7422 20.8857 21.6397 20.8857 21.5115C20.8857 21.3834 21.1276 21.2837 21.4277 21.2837C21.7278 21.2837 21.9668 21.3862 21.9668 21.5115Z" fill="#DA840D"/>
<path d="M25.487 22.0721C25.487 22.2515 25.1607 22.3996 24.7557 22.3996C24.3506 22.3996 24.0243 22.2515 24.0243 22.0721C24.0243 21.8927 24.3536 21.7418 24.7557 21.7418C25.1578 21.7418 25.487 21.8898 25.487 22.0721Z" fill="#DA840D"/>
<path d="M28.0804 21.5115C28.081 21.5574 28.0676 21.6023 28.0419 21.6407C28.0161 21.6791 27.9793 21.7091 27.9361 21.7269C27.8928 21.7447 27.8451 21.7495 27.7991 21.7407C27.753 21.7319 27.7107 21.7099 27.6775 21.6774C27.6443 21.645 27.6218 21.6036 27.6128 21.5586C27.6038 21.5136 27.6087 21.467 27.6269 21.4248C27.6451 21.3825 27.6758 21.3465 27.7151 21.3214C27.7544 21.2962 27.8004 21.2831 27.8473 21.2837C27.9091 21.2837 27.9684 21.3077 28.0121 21.3504C28.0559 21.3931 28.0804 21.4511 28.0804 21.5115Z" fill="#DA840D"/>
<path d="M27.611 23.3137C27.611 23.4248 27.3896 23.5159 27.1128 23.5159C26.836 23.5159 26.6174 23.4248 26.6174 23.3137C26.6174 23.2027 26.8389 23.1116 27.1128 23.1116C27.3867 23.1116 27.611 23.2027 27.611 23.3137Z" fill="#DA840D"/>
<path d="M31.5068 21.4113C31.5056 21.4775 31.4843 21.5417 31.4457 21.596C31.407 21.6502 31.3526 21.692 31.2896 21.716C31.2265 21.7399 31.1576 21.745 31.0915 21.7306C31.0255 21.7162 30.9654 21.6828 30.9188 21.6349C30.8722 21.5869 30.8412 21.5265 30.8299 21.4613C30.8186 21.3961 30.8273 21.3291 30.8551 21.2688C30.8828 21.2085 30.9283 21.1576 30.9857 21.1226C31.0432 21.0877 31.11 21.0702 31.1776 21.0724C31.222 21.0736 31.2657 21.0832 31.3063 21.1008C31.3469 21.1185 31.3835 21.1437 31.4141 21.1752C31.4446 21.2067 31.4686 21.2437 31.4845 21.2842C31.5004 21.3248 31.508 21.3679 31.5068 21.4113Z" fill="#DA840D"/>
<path d="M33.363 22.756C33.363 22.813 33.1911 22.8585 32.9755 22.8585C32.7598 22.8585 32.5908 22.813 32.5908 22.756C32.5908 22.6991 32.7627 22.6535 32.9755 22.6535C33.1882 22.6535 33.363 22.6991 33.363 22.756Z" fill="#DA840D"/>
<path d="M34.5719 22.0838C34.5792 22.1138 34.5767 22.1453 34.5648 22.1739C34.5529 22.2024 34.5322 22.2266 34.5055 22.2431C34.4789 22.2596 34.4476 22.2676 34.4161 22.2659C34.3846 22.2642 34.3544 22.2529 34.3298 22.2336C34.3052 22.2144 34.2873 22.1881 34.2787 22.1584C34.2701 22.1288 34.2712 22.0972 34.2818 22.0682C34.2924 22.0391 34.312 22.0141 34.3379 21.9965C34.3638 21.9788 34.3947 21.9696 34.4262 21.9699C34.4609 21.9667 34.4955 21.9768 34.5227 21.998C34.5498 22.0193 34.5675 22.0501 34.5719 22.0838Z" fill="#DA840D"/>
<path d="M33.363 22.7556C33.3562 22.8174 33.3313 22.8759 33.2913 22.9242C33.2513 22.9724 33.1978 23.0083 33.1374 23.0275C33.0769 23.0467 33.0121 23.0484 32.9507 23.0324C32.8893 23.0164 32.8339 22.9833 32.7913 22.9372C32.7487 22.8912 32.7206 22.834 32.7105 22.7727C32.7004 22.7114 32.7086 22.6485 32.7343 22.5917C32.7599 22.5348 32.8018 22.4865 32.8549 22.4524C32.9081 22.4183 32.9701 22.4 33.0337 22.3997C33.0793 22.4018 33.1239 22.4128 33.1651 22.4319C33.2064 22.451 33.2433 22.4778 33.2739 22.5109C33.3045 22.5439 33.3281 22.5826 33.3434 22.6246C33.3587 22.6666 33.3653 22.7111 33.363 22.7556Z" fill="#DA840D"/>
<path d="M35.2333 22.1859C35.2333 22.3026 35.0526 22.3994 34.8283 22.3994C34.6039 22.3994 34.4261 22.3026 34.4261 22.1859C34.4261 22.0691 34.6068 21.9694 34.8283 21.9694C35.0497 21.9694 35.2333 22.0662 35.2333 22.1859Z" fill="#DA840D"/>
<path d="M44.7907 22.9639C44.7907 26.6403 36.7982 30.0632 27.174 30.0632C17.5498 30.0632 9.49316 26.3868 9.49316 22.7104C9.49316 19.034 17.5498 16.7302 27.174 16.7302C36.7982 16.7302 44.7907 19.2846 44.7907 22.9639Z" fill="#E3AC8A"/>
<path d="M44.5985 22.2521C44.5985 25.9313 36.7983 28.9129 27.174 28.9129C17.5498 28.9129 9.7467 25.9313 9.7467 22.2521C9.7467 18.5728 17.5498 15.5913 27.174 15.5913C36.7983 15.5913 44.5985 18.5728 44.5985 22.2521Z" fill="#DA840D"/>
<path d="M26.9203 26.5633C34.0605 26.5633 39.8487 24.3512 39.8487 21.6225C39.8487 18.8938 34.0605 16.6817 26.9203 16.6817C19.7801 16.6817 13.9918 18.8938 13.9918 21.6225C13.9918 24.3512 19.7801 26.5633 26.9203 26.5633Z" fill="#F0A508"/>
<path d="M18.2199 23.4454C18.2199 23.7301 17.8906 23.9779 17.4827 23.9779C17.0748 23.9779 16.7484 23.7387 16.7484 23.4454C16.7484 23.152 17.0777 22.9128 17.4827 22.9128C17.8877 22.9128 18.2199 23.1492 18.2199 23.4454Z" fill="#DA840D"/>
<path d="M16.7485 21.201C16.7462 21.2799 16.7202 21.3564 16.6737 21.4209C16.6272 21.4854 16.5622 21.5351 16.487 21.5637C16.4117 21.5924 16.3295 21.5987 16.2506 21.582C16.1717 21.5652 16.0996 21.5261 16.0433 21.4695C15.987 21.4129 15.949 21.3414 15.9341 21.2638C15.9192 21.1863 15.9279 21.1061 15.9594 21.0334C15.9908 20.9607 16.0434 20.8987 16.1107 20.855C16.178 20.8114 16.2569 20.7881 16.3377 20.7881C16.4479 20.7903 16.5529 20.8349 16.6298 20.9122C16.7066 20.9894 16.7493 21.0932 16.7485 21.201Z" fill="#DA840D"/>
<path d="M21.8533 24.091C21.8626 24.2295 21.8292 24.3675 21.7573 24.4871C21.6854 24.6067 21.5783 24.7025 21.4501 24.7619C21.3218 24.8213 21.1782 24.8417 21.0379 24.8204C20.8976 24.799 20.7672 24.737 20.6634 24.6423C20.5597 24.5476 20.4875 24.4246 20.4562 24.2892C20.4248 24.1539 20.4359 24.0125 20.4878 23.8834C20.5398 23.7543 20.6302 23.6434 20.7475 23.5652C20.8647 23.4869 21.0033 23.4449 21.1452 23.4446C21.3267 23.4392 21.5029 23.5042 21.6355 23.6252C21.7682 23.7463 21.8464 23.9138 21.8533 24.091Z" fill="#DA840D"/>
<path d="M20.3148 21.5254C20.3148 21.702 20.1138 21.8472 19.869 21.8472C19.6243 21.8472 19.4203 21.702 19.4203 21.5254C19.4203 21.3489 19.6213 21.2008 19.869 21.2008C20.1167 21.2008 20.3148 21.3574 20.3148 21.5254Z" fill="#DA840D"/>
<path d="M24.8195 23.0666C24.8301 23.156 24.8127 23.2465 24.7695 23.3261C24.7263 23.4056 24.6594 23.4704 24.5777 23.512C24.496 23.5535 24.4032 23.5698 24.3118 23.5587C24.2204 23.5475 24.1346 23.5095 24.0657 23.4496C23.9969 23.3898 23.9484 23.3108 23.9265 23.2234C23.9046 23.1359 23.9104 23.044 23.9432 22.9598C23.9759 22.8757 24.0341 22.8032 24.1099 22.7521C24.1858 22.701 24.2757 22.6736 24.3679 22.6736C24.4809 22.6681 24.5915 22.7062 24.676 22.7797C24.7605 22.8533 24.812 22.9563 24.8195 23.0666Z" fill="#DA840D"/>
<path d="M24.9917 25.4211C24.9917 25.6034 24.7761 25.7515 24.508 25.7515C24.2399 25.7515 24.0243 25.6034 24.0243 25.4211C24.0243 25.2389 24.2428 25.0937 24.508 25.0937C24.7731 25.0937 24.9917 25.2389 24.9917 25.4211Z" fill="#DA840D"/>
<path d="M23.0627 21.8867C23.0581 21.9531 23.0336 22.0166 22.9923 22.0695C22.951 22.1223 22.8947 22.1621 22.8304 22.1839C22.7661 22.2057 22.6967 22.2086 22.6308 22.1921C22.5649 22.1756 22.5054 22.1405 22.4597 22.0912C22.414 22.042 22.3842 21.9806 22.374 21.9149C22.3637 21.8491 22.3735 21.7819 22.402 21.7215C22.4306 21.6612 22.4767 21.6104 22.5346 21.5754C22.5925 21.5405 22.6596 21.523 22.7276 21.5251C22.8206 21.5309 22.9076 21.572 22.9702 21.6395C23.0327 21.707 23.0659 21.7957 23.0627 21.8867Z" fill="#DA840D"/>
<path d="M28.08 22.5819C28.08 22.7641 27.8702 22.9122 27.6108 22.9122C27.3515 22.9122 27.1417 22.7641 27.1417 22.5819C27.1417 22.3996 27.3515 22.2515 27.6108 22.2515C27.8702 22.2515 28.08 22.3996 28.08 22.5819Z" fill="#DA840D"/>
<path d="M28.08 24.2879C28.08 24.3962 27.8702 24.4844 27.6108 24.4844C27.3515 24.4844 27.1417 24.3962 27.1417 24.2879C27.1417 24.1797 27.3515 24.0914 27.6108 24.0914C27.8702 24.0914 28.08 24.1797 28.08 24.2879Z" fill="#DA840D"/>
<path d="M31.2532 23.1777C31.2532 23.3257 31.0638 23.4453 30.8278 23.4453C30.5918 23.4453 30.4053 23.3257 30.4053 23.1777C30.4053 23.0296 30.5947 22.9128 30.8278 22.9128C31.0609 22.9128 31.2532 23.0324 31.2532 23.1777Z" fill="#DA840D"/>
<path d="M30.7461 25.0792C30.7667 25.1678 30.7585 25.2606 30.7227 25.3445C30.687 25.4285 30.6254 25.4995 30.5466 25.5477C30.4677 25.596 30.3755 25.6191 30.2826 25.6138C30.1897 25.6086 30.1008 25.5752 30.0281 25.5184C29.9555 25.4616 29.9027 25.3842 29.8771 25.2968C29.8515 25.2094 29.8543 25.1163 29.8851 25.0306C29.916 24.9448 29.9734 24.8705 30.0493 24.818C30.1252 24.7655 30.216 24.7373 30.309 24.7374C30.4132 24.727 30.5174 24.757 30.5991 24.8209C30.6809 24.8848 30.7337 24.9776 30.7461 25.0792Z" fill="#DA840D"/>
<path d="M34.2776 24.5267C34.2595 24.6108 34.2173 24.6883 34.156 24.75C34.0947 24.8118 34.0167 24.8553 33.9312 24.8755C33.8456 24.8958 33.7559 24.8919 33.6725 24.8644C33.5891 24.837 33.5153 24.787 33.4598 24.7202C33.4042 24.6535 33.3691 24.5727 33.3586 24.4873C33.348 24.4019 33.3624 24.3153 33.4001 24.2376C33.4378 24.1598 33.4973 24.0941 33.5716 24.048C33.646 24.0019 33.7321 23.9773 33.8202 23.9771C33.9548 23.9921 34.078 24.0581 34.1635 24.1608C34.249 24.2635 34.2899 24.3948 34.2776 24.5267Z" fill="#DA840D"/>
<path d="M34.0242 22.0497C34.0242 22.1607 33.8756 22.2519 33.692 22.2519C33.5085 22.2519 33.3628 22.1607 33.3628 22.0497C33.3628 21.9386 33.5114 21.8475 33.692 21.8475C33.8727 21.8475 34.0242 21.9272 34.0242 22.0497Z" fill="#DA840D"/>
<path d="M36.8214 22.6448C36.8214 23.0862 36.6204 23.445 36.3756 23.445C36.1308 23.445 35.9269 23.0862 35.9269 22.6448C35.9269 22.2034 36.1279 21.8475 36.3756 21.8475C36.6233 21.8475 36.8214 22.212 36.8214 22.6448Z" fill="#DA840D"/>
<path d="M37.9436 21.8355C37.9428 21.8919 37.9195 21.9458 37.8787 21.9857C37.8379 22.0256 37.7827 22.0483 37.725 22.0491C37.6818 22.0491 37.6395 22.0365 37.6036 22.0131C37.5677 21.9896 37.5396 21.9562 37.5231 21.9172C37.5066 21.8782 37.5022 21.8352 37.5107 21.7938C37.5191 21.7524 37.5399 21.7143 37.5705 21.6845C37.601 21.6546 37.64 21.6342 37.6824 21.626C37.7248 21.6178 37.7687 21.622 37.8087 21.6382C37.8486 21.6543 37.8827 21.6817 37.9067 21.7168C37.9307 21.7519 37.9436 21.7932 37.9436 21.8355Z" fill="#DA840D"/>
<path d="M30.5947 21.1528C30.5947 21.3578 30.3208 21.5259 29.9857 21.5259C29.6506 21.5259 29.3767 21.3578 29.3767 21.1528C29.3767 20.9478 29.6477 20.7826 29.9857 20.7826C30.3237 20.7826 30.5947 20.9478 30.5947 21.1528Z" fill="#DA840D"/>
<path d="M19.1696 19.2332C19.1696 19.3613 18.9569 19.4639 18.6947 19.4639C18.4324 19.4639 18.2197 19.3613 18.2197 19.2332C18.2197 19.105 18.4324 19.0054 18.6947 19.0054C18.9569 19.0054 19.1696 19.1079 19.1696 19.2332Z" fill="#DA840D"/>
<path d="M21.9668 18.7772C21.9668 18.9025 21.7249 19.005 21.4277 19.005C21.1305 19.005 20.8857 18.9025 20.8857 18.7772C20.8857 18.6519 21.1276 18.5494 21.4277 18.5494C21.7278 18.5494 21.9668 18.6519 21.9668 18.7772Z" fill="#DA840D"/>
<path d="M25.487 19.3357C25.487 19.518 25.1607 19.6661 24.7557 19.6661C24.3506 19.6661 24.0243 19.518 24.0243 19.3357C24.0243 19.1535 24.3536 19.0054 24.7557 19.0054C25.1578 19.0054 25.487 19.1535 25.487 19.3357Z" fill="#DA840D"/>
<path d="M28.0804 18.7772C28.081 18.823 28.0676 18.868 28.0419 18.9064C28.0161 18.9448 27.9793 18.9748 27.9361 18.9926C27.8928 19.0104 27.8451 19.0152 27.7991 19.0064C27.753 18.9976 27.7107 18.9755 27.6775 18.9431C27.6443 18.9107 27.6218 18.8693 27.6128 18.8243C27.6038 18.7793 27.6087 18.7327 27.6269 18.6904C27.6451 18.6482 27.6758 18.6122 27.7151 18.5871C27.7544 18.5619 27.8004 18.5488 27.8473 18.5494C27.9091 18.5494 27.9684 18.5734 28.0121 18.6161C28.0559 18.6588 28.0804 18.7168 28.0804 18.7772Z" fill="#DA840D"/>
<path d="M27.611 20.5802C27.611 20.6912 27.3896 20.7824 27.1128 20.7824C26.836 20.7824 26.6174 20.6912 26.6174 20.5802C26.6174 20.4691 26.8389 20.3752 27.1128 20.3752C27.3867 20.3752 27.611 20.4663 27.611 20.5802Z" fill="#DA840D"/>
<path d="M31.5069 18.6778C31.5074 18.7443 31.4876 18.8094 31.4499 18.8648C31.4123 18.9202 31.3585 18.9633 31.2956 18.9886C31.2327 19.0139 31.1635 19.0202 31.0969 19.0067C31.0302 18.9932 30.9693 18.9606 30.9218 18.9129C30.8743 18.8653 30.8425 18.8049 30.8305 18.7394C30.8184 18.674 30.8267 18.6065 30.8542 18.5457C30.8817 18.4849 30.9272 18.4335 30.9849 18.3982C31.0425 18.3628 31.1096 18.3452 31.1776 18.3474C31.266 18.3489 31.3502 18.3845 31.4118 18.4464C31.4735 18.5082 31.5077 18.5914 31.5069 18.6778Z" fill="#DA840D"/>
<path d="M33.363 20.0217C33.363 20.0758 33.1911 20.1214 32.9755 20.1214C32.7598 20.1214 32.5908 20.0758 32.5908 20.0217C32.5908 19.9676 32.7627 19.9192 32.9755 19.9192C33.1882 19.9192 33.363 19.9648 33.363 20.0217Z" fill="#DA840D"/>
<path d="M34.5722 19.3643C34.5788 19.3943 34.5757 19.4256 34.5634 19.4539C34.551 19.4821 34.5299 19.5059 34.5031 19.522C34.4763 19.538 34.445 19.5455 34.4136 19.5433C34.3823 19.5412 34.3523 19.5296 34.328 19.5101C34.3037 19.4906 34.2862 19.4642 34.2779 19.4346C34.2696 19.4049 34.271 19.3735 34.2818 19.3446C34.2927 19.3158 34.3124 19.2909 34.3383 19.2735C34.3642 19.2561 34.3951 19.247 34.4265 19.2475C34.4616 19.2443 34.4966 19.2548 34.5239 19.2767C34.5511 19.2985 34.5685 19.33 34.5722 19.3643Z" fill="#DA840D"/>
<path d="M33.363 20.022C33.3562 20.0837 33.3313 20.1423 33.2913 20.1905C33.2513 20.2387 33.1978 20.2746 33.1374 20.2938C33.0769 20.313 33.0121 20.3147 32.9507 20.2987C32.8893 20.2827 32.8339 20.2497 32.7913 20.2036C32.7487 20.1575 32.7206 20.1004 32.7105 20.039C32.7004 19.9777 32.7086 19.9149 32.7343 19.858C32.7599 19.8012 32.8018 19.7528 32.8549 19.7187C32.9081 19.6847 32.9701 19.6664 33.0337 19.666C33.0793 19.6682 33.1239 19.6791 33.1651 19.6982C33.2064 19.7173 33.2433 19.7442 33.2739 19.7772C33.3045 19.8103 33.3281 19.8489 33.3434 19.8909C33.3587 19.9329 33.3653 19.9774 33.363 20.022Z" fill="#DA840D"/>
<path d="M35.2333 19.4495C35.2333 19.5691 35.0526 19.6659 34.8283 19.6659C34.6039 19.6659 34.4261 19.5691 34.4261 19.4495C34.4261 19.3299 34.6068 19.233 34.8283 19.233C35.0497 19.233 35.2333 19.3299 35.2333 19.4495Z" fill="#DA840D"/>
<path d="M45.0675 18.077C45.0675 21.7534 37.072 25.1764 27.4478 25.1764C17.8236 25.1764 9.7699 21.5 9.7699 17.8207C9.7699 14.1415 17.8236 11.8548 27.4478 11.8548C37.072 11.8548 45.0675 14.3978 45.0675 18.077Z" fill="#E3AC8A"/>
<path d="M44.872 17.3709C44.872 21.0502 37.0689 24.0317 27.4447 24.0317C17.8205 24.0317 10.0232 21.0445 10.0232 17.3709C10.0232 13.6974 17.8234 10.7044 27.4476 10.7044C37.0718 10.7044 44.872 13.686 44.872 17.3709Z" fill="#DA840D"/>
<path d="M40.1258 16.7357C40.1258 19.4638 34.3361 21.6765 27.1973 21.6765C20.0585 21.6765 14.2776 19.4638 14.2776 16.7357C14.2776 14.0076 20.0585 11.7921 27.1973 11.7921C34.3361 11.7921 40.1258 14.0048 40.1258 16.7357Z" fill="#F0A508"/>
<path d="M18.4938 18.5585C18.4938 18.8433 18.1675 19.091 17.7595 19.091C17.3516 19.091 17.0253 18.8518 17.0253 18.5585C17.0253 18.2652 17.3545 18.026 17.7741 18.026C18.1937 18.026 18.4938 18.2623 18.4938 18.5585Z" fill="#DA840D"/>
<path d="M17.0253 16.3144C17.0219 16.3927 16.995 16.4684 16.9481 16.532C16.9012 16.5956 16.8362 16.6444 16.7613 16.6724C16.6863 16.7003 16.6046 16.7062 16.5262 16.6893C16.4479 16.6724 16.3763 16.6334 16.3203 16.5772C16.2644 16.521 16.2265 16.45 16.2114 16.373C16.1962 16.2959 16.2045 16.2163 16.2352 16.1438C16.2658 16.0713 16.3175 16.0092 16.3839 15.9651C16.4503 15.9211 16.5284 15.8969 16.6086 15.8957C16.6642 15.8961 16.7192 15.9073 16.7703 15.9286C16.8215 15.9499 16.8678 15.9809 16.9066 16.0199C16.9453 16.0588 16.9758 16.1049 16.9962 16.1555C17.0165 16.206 17.0264 16.26 17.0253 16.3144Z" fill="#DA840D"/>
<path d="M22.1446 19.2048C22.1534 19.3426 22.1196 19.4798 22.0476 19.5986C21.9756 19.7174 21.8688 19.8124 21.741 19.8711C21.6132 19.9299 21.4702 19.9498 21.3307 19.9282C21.1912 19.9066 21.0615 19.8446 20.9584 19.7502C20.8554 19.6557 20.7838 19.5332 20.7528 19.3985C20.7219 19.2638 20.7331 19.1231 20.7849 18.9946C20.8368 18.8662 20.9269 18.756 21.0436 18.6782C21.1603 18.6004 21.2982 18.5587 21.4395 18.5584C21.6206 18.553 21.7966 18.618 21.9287 18.7392C22.0609 18.8604 22.1385 19.0278 22.1446 19.2048Z" fill="#DA840D"/>
<path d="M20.5915 16.6359C20.5915 16.8153 20.3905 16.9605 20.1428 16.9605C19.8952 16.9605 19.697 16.8153 19.697 16.6359C19.697 16.4565 19.8981 16.3141 20.1428 16.3141C20.3876 16.3141 20.5915 16.4593 20.5915 16.6359Z" fill="#DA840D"/>
<path d="M25.0965 18.1656C25.1071 18.255 25.0897 18.3455 25.0465 18.425C25.0033 18.5046 24.9364 18.5694 24.8547 18.611C24.7729 18.6525 24.6802 18.6688 24.5888 18.6576C24.4973 18.6465 24.4115 18.6085 24.3427 18.5486C24.2739 18.4887 24.2253 18.4098 24.2034 18.3224C24.1816 18.2349 24.1874 18.143 24.2201 18.0588C24.2529 17.9747 24.3111 17.9022 24.3869 17.8511C24.4628 17.8 24.5527 17.7726 24.6449 17.7726C24.7578 17.7671 24.8685 17.8052 24.953 17.8787C25.0374 17.9522 25.089 18.0552 25.0965 18.1656Z" fill="#DA840D"/>
<path d="M25.2682 20.5349C25.2682 20.7172 25.0525 20.8653 24.7845 20.8653C24.5164 20.8653 24.3008 20.7172 24.3008 20.5349C24.3008 20.3527 24.5164 20.2188 24.7845 20.2188C25.0525 20.2188 25.2682 20.3555 25.2682 20.5349Z" fill="#DA840D"/>
<path d="M23.3396 17.0005C23.3396 17.0904 23.3031 17.1766 23.238 17.2401C23.173 17.3037 23.0848 17.3394 22.9929 17.3394C22.9009 17.3394 22.8127 17.3037 22.7477 17.2401C22.6826 17.1766 22.6461 17.0904 22.6461 17.0005C22.6461 16.9106 22.6826 16.8244 22.7477 16.7609C22.8127 16.6973 22.9009 16.6616 22.9929 16.6616C23.0848 16.6616 23.173 16.6973 23.238 16.7609C23.3031 16.8244 23.3396 16.9106 23.3396 17.0005Z" fill="#DA840D"/>
<path d="M28.3569 17.6954C28.3569 17.8777 28.1471 18.0258 27.8878 18.0258C27.6285 18.0258 27.4187 17.8777 27.4187 17.6954C27.4187 17.5132 27.6285 17.3708 27.8878 17.3708C28.1471 17.3708 28.3569 17.5132 28.3569 17.6954Z" fill="#DA840D"/>
<path d="M28.3569 19.4011C28.3569 19.5093 28.1471 19.5976 27.8878 19.5976C27.6285 19.5976 27.4187 19.5093 27.4187 19.4011C27.4187 19.2929 27.6285 19.2046 27.8878 19.2046C28.1471 19.2046 28.3569 19.2929 28.3569 19.4011Z" fill="#DA840D"/>
<path d="M31.5298 18.2908C31.5298 18.4389 31.3404 18.5585 31.1044 18.5585C30.8684 18.5585 30.679 18.4389 30.679 18.2908C30.679 18.1427 30.8713 18.026 31.1044 18.026C31.3375 18.026 31.5298 18.1456 31.5298 18.2908Z" fill="#DA840D"/>
<path d="M31.023 20.1926C31.0442 20.2818 31.0364 20.3753 31.0008 20.46C30.9652 20.5447 30.9035 20.6165 30.8243 20.6654C30.7451 20.7144 30.6523 20.738 30.5587 20.733C30.4651 20.7281 30.3755 20.6948 30.3021 20.6379C30.2287 20.5809 30.1753 20.503 30.1493 20.415C30.1232 20.3271 30.1258 20.2333 30.1567 20.1469C30.1876 20.0604 30.2452 19.9854 30.3216 19.9324C30.398 19.8794 30.4894 19.8509 30.5831 19.8509C30.6877 19.8397 30.7926 19.8693 30.875 19.9333C30.9574 19.9973 31.0106 20.0905 31.023 20.1926Z" fill="#DA840D"/>
<path d="M34.5546 19.649C34.5334 19.732 34.4888 19.8075 34.426 19.8671C34.3631 19.9266 34.2844 19.9678 34.1989 19.9859C34.1133 20.004 34.0242 19.9984 33.9418 19.9696C33.8593 19.9409 33.7868 19.8901 33.7323 19.8231C33.6778 19.7562 33.6436 19.6756 33.6335 19.5906C33.6234 19.5056 33.6379 19.4196 33.6752 19.3422C33.7126 19.2648 33.7714 19.1992 33.8449 19.1528C33.9184 19.1063 34.0038 19.0809 34.0913 19.0794C34.1604 19.0861 34.2274 19.1063 34.2884 19.1387C34.3494 19.1712 34.4031 19.2153 34.4463 19.2684C34.4895 19.3215 34.5213 19.3826 34.5399 19.4479C34.5585 19.5133 34.5635 19.5817 34.5546 19.649Z" fill="#DA840D"/>
<path d="M34.3012 17.1628C34.3012 17.2739 34.1526 17.365 33.969 17.365C33.7855 17.365 33.6398 17.2739 33.6398 17.1628C33.6398 17.0517 33.7855 16.9606 33.969 16.9606C34.1526 16.9606 34.3012 17.0517 34.3012 17.1628Z" fill="#DA840D"/>
<path d="M37.0984 17.758C37.0984 18.1994 36.8973 18.5582 36.6497 18.5582C36.402 18.5582 36.2039 18.1994 36.2039 17.758C36.2039 17.3166 36.4049 16.9606 36.6497 16.9606C36.8944 16.9606 37.0984 17.3166 37.0984 17.758Z" fill="#DA840D"/>
<path d="M38.2174 16.9493C38.2168 16.9908 38.2037 17.0313 38.1796 17.0656C38.1556 17.0998 38.1217 17.1264 38.0823 17.1419C38.0428 17.1574 37.9995 17.1612 37.9579 17.1527C37.9163 17.1443 37.8781 17.124 37.8483 17.0944C37.8184 17.0648 37.7982 17.0273 37.7901 16.9865C37.782 16.9457 37.7864 16.9035 37.8028 16.8651C37.8192 16.8268 37.8469 16.7941 37.8823 16.771C37.9176 16.748 37.9592 16.7357 38.0017 16.7357C38.0592 16.7364 38.114 16.7593 38.1544 16.7992C38.1947 16.8392 38.2174 16.8931 38.2174 16.9493Z" fill="#DA840D"/>
<path d="M30.8686 16.2659C30.8686 16.471 30.5976 16.6362 30.2625 16.6362C29.9275 16.6362 29.6536 16.471 29.6536 16.2659C29.6536 16.0609 29.9245 15.8957 30.2625 15.8957C30.6005 15.8957 30.8686 16.0609 30.8686 16.2659Z" fill="#DA840D"/>
<path d="M19.4467 14.3492C19.4467 14.4745 19.234 14.577 18.9717 14.577C18.7095 14.577 18.4939 14.4745 18.4939 14.3492C18.4939 14.2239 18.7066 14.1185 18.9717 14.1185C19.2369 14.1185 19.4467 14.221 19.4467 14.3492Z" fill="#DA840D"/>
<path d="M22.2437 13.891C22.2437 14.0191 22.0019 14.1188 21.7018 14.1188C21.4017 14.1188 21.1627 14.0191 21.1627 13.891C21.1627 13.7629 21.4046 13.6632 21.7018 13.6632C21.999 13.6632 22.2437 13.7657 22.2437 13.891Z" fill="#DA840D"/>
<path d="M25.7635 14.4488C25.7635 14.6311 25.4372 14.7792 25.0321 14.7792C24.6271 14.7792 24.3008 14.6311 24.3008 14.4488C24.3008 14.2666 24.63 14.1185 25.0321 14.1185C25.4342 14.1185 25.7635 14.2666 25.7635 14.4488Z" fill="#DA840D"/>
<path d="M28.3569 13.8905C28.3505 13.9469 28.323 13.999 28.2797 14.0368C28.2365 14.0746 28.1804 14.0956 28.1224 14.0956C28.0643 14.0956 28.0083 14.0746 27.965 14.0368C27.9217 13.999 27.8943 13.9469 27.8878 13.8905C27.8943 13.8341 27.9217 13.782 27.965 13.7442C28.0083 13.7063 28.0643 13.6854 28.1224 13.6854C28.1804 13.6854 28.2365 13.7063 28.2797 13.7442C28.323 13.782 28.3505 13.8341 28.3569 13.8905Z" fill="#DA840D"/>
<path d="M27.8877 15.6905C27.8877 15.8044 27.6663 15.8955 27.3895 15.8955C27.1127 15.8955 26.8912 15.8044 26.8912 15.6905C26.8912 15.5766 27.1156 15.4883 27.3895 15.4883C27.6634 15.4883 27.8877 15.5794 27.8877 15.6905Z" fill="#DA840D"/>
<path d="M31.7836 13.7908C31.7842 13.8569 31.7647 13.9216 31.7276 13.9767C31.6905 14.0319 31.6374 14.075 31.5752 14.1007C31.513 14.1263 31.4443 14.1333 31.378 14.1208C31.3117 14.1083 31.2507 14.0768 31.2027 14.0303C31.1547 13.9838 31.122 13.9245 31.1086 13.8597C31.0952 13.795 31.1018 13.7279 31.1275 13.6669C31.1532 13.6058 31.1969 13.5536 31.253 13.5169C31.3091 13.4801 31.3752 13.4605 31.4427 13.4605C31.4874 13.4598 31.5319 13.4678 31.5734 13.484C31.6149 13.5003 31.6527 13.5246 31.6845 13.5554C31.7162 13.5862 31.7414 13.6229 31.7584 13.6633C31.7754 13.7038 31.784 13.7471 31.7836 13.7908Z" fill="#DA840D"/>
<path d="M33.6393 15.1355C33.6393 15.1896 33.4645 15.2352 33.2518 15.2352C33.0391 15.2352 32.8672 15.1896 32.8672 15.1355C32.8672 15.0814 33.0391 15.033 33.2518 15.033C33.4645 15.033 33.6393 15.0928 33.6393 15.1355Z" fill="#DA840D"/>
<path d="M34.8489 14.4635C34.8399 14.4945 34.8208 14.5217 34.7945 14.5411C34.7682 14.5605 34.7361 14.5709 34.7032 14.5709C34.6703 14.5709 34.6382 14.5605 34.6119 14.5411C34.5857 14.5217 34.5665 14.4945 34.5575 14.4635C34.5665 14.4326 34.5857 14.4054 34.6119 14.386C34.6382 14.3666 34.6703 14.3561 34.7032 14.3561C34.7361 14.3561 34.7682 14.3666 34.7945 14.386C34.8208 14.4054 34.8399 14.4326 34.8489 14.4635Z" fill="#DA840D"/>
<path d="M33.6398 15.1351C33.6331 15.1969 33.6082 15.2554 33.5681 15.3036C33.5281 15.3519 33.4746 15.3878 33.4142 15.407C33.3538 15.4262 33.2889 15.4279 33.2275 15.4118C33.1661 15.3958 33.1108 15.3628 33.0682 15.3167C33.0255 15.2707 32.9975 15.2135 32.9874 15.1522C32.9772 15.0909 32.9855 15.028 33.0111 14.9712C33.0367 14.9143 33.0786 14.866 33.1318 14.8319C33.1849 14.7978 33.247 14.7795 33.3105 14.7791C33.3561 14.7813 33.4008 14.7923 33.442 14.8114C33.4832 14.8305 33.5202 14.8573 33.5507 14.8904C33.5813 14.9234 33.6049 14.9621 33.6202 15.0041C33.6355 15.0461 33.6422 15.0906 33.6398 15.1351Z" fill="#DA840D"/>
<path d="M35.5104 14.563C35.5104 14.6826 35.3297 14.7794 35.1053 14.7794C34.881 14.7794 34.7003 14.6826 34.7003 14.563C34.7003 14.4433 34.881 14.3494 35.1053 14.3494C35.3297 14.3494 35.5104 14.4433 35.5104 14.563Z" fill="#DA840D"/>
<path d="M45.0675 14.9359C45.0675 18.6152 37.072 22.0353 27.4478 22.0353C17.8236 22.0353 9.7699 18.3617 9.7699 14.6825C9.7699 11.0032 17.8236 8.70226 27.4478 8.70226C37.072 8.70226 45.0675 11.2567 45.0675 14.9359Z" fill="#E3AC8A"/>
<path d="M44.872 14.2384C44.872 17.9148 37.0689 20.8992 27.4447 20.8992C17.8205 20.8992 10.0232 17.9034 10.0232 14.2384C10.0232 10.5734 17.8234 7.57472 27.4476 7.57472C37.0718 7.57472 44.872 10.5363 44.872 14.2384Z" fill="#DA840D"/>
<path d="M40.1258 13.5946C40.1258 16.3227 34.3361 18.5354 27.1973 18.5354C20.0585 18.5354 14.2776 16.3227 14.2776 13.5946C14.2776 10.8665 20.0585 8.65099 27.1973 8.65099C34.3361 8.65099 40.1258 10.8637 40.1258 13.5946Z" fill="#F0A508"/>
<path d="M18.4938 15.4174C18.4938 15.7022 18.1675 15.9499 17.7595 15.9499C17.3516 15.9499 17.0253 15.7107 17.0253 15.4174C17.0253 15.1241 17.3545 14.8849 17.7595 14.8849C18.1646 14.8849 18.4938 15.1241 18.4938 15.4174Z" fill="#DA840D"/>
<path d="M17.0253 13.1733C17.0219 13.2516 16.995 13.3273 16.9481 13.3909C16.9012 13.4545 16.8362 13.5033 16.7613 13.5313C16.6863 13.5592 16.6046 13.5651 16.5262 13.5482C16.4479 13.5313 16.3763 13.4923 16.3203 13.4361C16.2644 13.3799 16.2265 13.3089 16.2114 13.2319C16.1962 13.1548 16.2045 13.0752 16.2352 13.0027C16.2658 12.9302 16.3175 12.8681 16.3839 12.824C16.4503 12.7799 16.5284 12.7558 16.6086 12.7546C16.6642 12.755 16.7192 12.7662 16.7703 12.7875C16.8215 12.8088 16.8678 12.8398 16.9066 12.8788C16.9453 12.9177 16.9758 12.9638 16.9962 13.0144C17.0165 13.0649 17.0264 13.1189 17.0253 13.1733Z" fill="#DA840D"/>
<path d="M21.431 16.7098C21.8204 16.7098 22.1361 16.4204 22.1361 16.0634C22.1361 15.7064 21.8204 15.417 21.431 15.417C21.0415 15.417 20.7258 15.7064 20.7258 16.0634C20.7258 16.4204 21.0415 16.7098 21.431 16.7098Z" fill="#DA840D"/>
<path d="M20.5915 13.4981C20.5915 13.6747 20.3905 13.8199 20.1428 13.8199C19.8952 13.8199 19.697 13.669 19.697 13.4981C19.697 13.3273 19.8981 13.1735 20.1428 13.1735C20.3876 13.1735 20.5915 13.3187 20.5915 13.4981Z" fill="#DA840D"/>
<path d="M25.0965 15.0245C25.1071 15.1139 25.0897 15.2044 25.0465 15.2839C25.0033 15.3635 24.9364 15.4283 24.8547 15.4699C24.7729 15.5114 24.6802 15.5277 24.5888 15.5166C24.4973 15.5054 24.4115 15.4674 24.3427 15.4075C24.2739 15.3476 24.2253 15.2687 24.2034 15.1813C24.1816 15.0938 24.1874 15.0019 24.2201 14.9177C24.2529 14.8336 24.3111 14.7611 24.3869 14.71C24.4628 14.6589 24.5527 14.6315 24.6449 14.6315C24.7578 14.626 24.8685 14.6641 24.953 14.7376C25.0374 14.8111 25.089 14.9142 25.0965 15.0245Z" fill="#DA840D"/>
<path d="M25.2682 17.3932C25.2682 17.5754 25.0525 17.7235 24.7845 17.7235C24.5164 17.7235 24.3008 17.5754 24.3008 17.3932C24.3008 17.2109 24.5164 17.0657 24.7845 17.0657C25.0525 17.0657 25.2682 17.2138 25.2682 17.3932Z" fill="#DA840D"/>
<path d="M23.3396 13.862C23.3345 13.9277 23.3099 13.9906 23.2688 14.0428C23.2278 14.0951 23.172 14.1345 23.1084 14.1563C23.0447 14.178 22.976 14.1812 22.9105 14.1654C22.8451 14.1495 22.7858 14.1154 22.7399 14.0672C22.694 14.0189 22.6635 13.9586 22.6521 13.8937C22.6407 13.8287 22.6489 13.7619 22.6758 13.7015C22.7026 13.6411 22.7469 13.5896 22.8032 13.5533C22.8595 13.5171 22.9254 13.4977 22.9928 13.4975C23.0882 13.5013 23.1781 13.5417 23.2431 13.6099C23.308 13.6782 23.3427 13.7689 23.3396 13.862Z" fill="#DA840D"/>
<path d="M28.3569 14.5544C28.3569 14.7367 28.1471 14.8848 27.8878 14.8848C27.6285 14.8848 27.4187 14.7367 27.4187 14.5544C27.4187 14.3722 27.6285 14.2383 27.8878 14.2383C28.1471 14.2383 28.3569 14.3722 28.3569 14.5544Z" fill="#DA840D"/>
<path d="M28.3569 16.26C28.3569 16.3682 28.1471 16.4565 27.8878 16.4565C27.6285 16.4565 27.4187 16.3682 27.4187 16.26C27.4187 16.1518 27.6285 16.0635 27.8878 16.0635C28.1471 16.0635 28.3569 16.1518 28.3569 16.26Z" fill="#DA840D"/>
<path d="M31.5298 15.1497C31.5298 15.2978 31.3404 15.4174 31.1044 15.4174C30.8684 15.4174 30.679 15.2978 30.679 15.1497C30.679 15.0016 30.8713 14.8849 31.1044 14.8849C31.3375 14.8849 31.5298 15.0045 31.5298 15.1497Z" fill="#DA840D"/>
<path d="M31.023 17.052C31.0442 17.1412 31.0364 17.2347 31.0008 17.3194C30.9652 17.4041 30.9035 17.4759 30.8243 17.5248C30.7451 17.5737 30.6523 17.5974 30.5587 17.5924C30.4651 17.5875 30.3755 17.5542 30.3021 17.4972C30.2287 17.4403 30.1753 17.3624 30.1493 17.2744C30.1232 17.1864 30.1258 17.0927 30.1567 17.0062C30.1876 16.9198 30.2452 16.8448 30.3216 16.7918C30.398 16.7388 30.4894 16.7103 30.5831 16.7103C30.6877 16.699 30.7926 16.7287 30.875 16.7927C30.9574 16.8566 31.0106 16.9499 31.023 17.052Z" fill="#DA840D"/>
<path d="M34.5546 16.5166C34.5334 16.5996 34.4888 16.6751 34.4259 16.7347C34.3631 16.7942 34.2844 16.8354 34.1988 16.8535C34.1133 16.8716 34.0242 16.866 33.9418 16.8372C33.8593 16.8085 33.7868 16.7577 33.7323 16.6907C33.6778 16.6238 33.6436 16.5432 33.6335 16.4582C33.6234 16.3732 33.6379 16.2872 33.6752 16.2098C33.7126 16.1324 33.7714 16.0668 33.8449 16.0203C33.9184 15.9739 34.0038 15.9485 34.0913 15.947C34.1606 15.9533 34.2278 15.9732 34.289 16.0056C34.3501 16.0379 34.404 16.082 34.4472 16.1352C34.4905 16.1884 34.5223 16.2496 34.5408 16.3152C34.5592 16.3807 34.5639 16.4492 34.5546 16.5166Z" fill="#DA840D"/>
<path d="M34.3012 14.0222C34.3012 14.1361 34.1526 14.2272 33.969 14.2272C33.7855 14.2272 33.6398 14.1361 33.6398 14.0222C33.6398 13.9083 33.7855 13.82 33.969 13.82C34.1526 13.82 34.3012 13.9111 34.3012 14.0222Z" fill="#DA840D"/>
<path d="M37.0984 14.6174C37.0984 15.0587 36.8973 15.4176 36.6497 15.4176C36.402 15.4176 36.2039 15.0587 36.2039 14.6174C36.2039 14.176 36.4049 13.82 36.6497 13.82C36.8944 13.82 37.0984 14.1788 37.0984 14.6174Z" fill="#DA840D"/>
<path d="M38.2174 13.8086C38.2168 13.8502 38.2037 13.8907 38.1796 13.9249C38.1556 13.9592 38.1217 13.9858 38.0823 14.0013C38.0428 14.0168 37.9996 14.0206 37.9579 14.0121C37.9163 14.0037 37.8781 13.9834 37.8483 13.9538C37.8184 13.9242 37.7982 13.8867 37.7901 13.8459C37.782 13.8051 37.7864 13.7628 37.8028 13.7245C37.8192 13.6862 37.8469 13.6534 37.8823 13.6304C37.9177 13.6073 37.9592 13.5951 38.0017 13.5951C38.0303 13.5951 38.0586 13.6006 38.085 13.6114C38.1113 13.6221 38.1352 13.6379 38.1553 13.6578C38.1753 13.6777 38.1912 13.7012 38.2018 13.7271C38.2125 13.753 38.2178 13.7807 38.2174 13.8086Z" fill="#DA840D"/>
<path d="M30.8686 13.1248C30.8686 13.3299 30.5976 13.4979 30.2625 13.4979C29.9275 13.4979 29.6536 13.3299 29.6536 13.1248C29.6536 12.9198 29.9245 12.7546 30.2625 12.7546C30.6005 12.7546 30.8686 12.9198 30.8686 13.1248Z" fill="#DA840D"/>
<path d="M19.4467 11.2084C19.4467 11.3337 19.234 11.4362 18.9717 11.4362C18.7095 11.4362 18.4939 11.3337 18.4939 11.2084C18.4939 11.0831 18.7066 10.9806 18.9717 10.9806C19.2369 10.9806 19.4467 11.0831 19.4467 11.2084Z" fill="#DA840D"/>
<path d="M22.2437 10.7497C22.2437 10.8779 22.0019 10.9804 21.7018 10.9804C21.4017 10.9804 21.1627 10.8779 21.1627 10.7497C21.1627 10.6216 21.4046 10.5219 21.7018 10.5219C21.999 10.5219 22.2437 10.6244 22.2437 10.7497Z" fill="#DA840D"/>
<path d="M25.7635 11.3081C25.7635 11.4904 25.4372 11.6384 25.0321 11.6384C24.6271 11.6384 24.3008 11.4904 24.3008 11.3081C24.3008 11.1258 24.63 10.9806 25.0321 10.9806C25.4342 10.9806 25.7635 11.1258 25.7635 11.3081Z" fill="#DA840D"/>
<path d="M28.3568 10.7499C28.3573 10.7957 28.3439 10.8407 28.3182 10.8791C28.2925 10.9175 28.2557 10.9475 28.2124 10.9653C28.1692 10.9831 28.1215 10.9879 28.0754 10.9791C28.0294 10.9703 27.9871 10.9482 27.9539 10.9158C27.9207 10.8834 27.8982 10.842 27.8892 10.797C27.8801 10.752 27.8851 10.7054 27.9033 10.6631C27.9215 10.6209 27.9522 10.5849 27.9915 10.5597C28.0307 10.5346 28.0768 10.5215 28.1237 10.5221C28.1855 10.5221 28.2448 10.5461 28.2885 10.5888C28.3322 10.6315 28.3568 10.6895 28.3568 10.7499Z" fill="#DA840D"/>
<path d="M27.8877 12.5522C27.8877 12.6633 27.6663 12.7544 27.3895 12.7544C27.1127 12.7544 26.8912 12.6633 26.8912 12.5522C26.8912 12.4412 27.1156 12.3472 27.3895 12.3472C27.6634 12.3472 27.8877 12.4383 27.8877 12.5522Z" fill="#DA840D"/>
<path d="M31.7836 10.6503C31.7842 10.7163 31.7647 10.781 31.7276 10.8362C31.6905 10.8913 31.6374 10.9345 31.5752 10.9601C31.513 10.9858 31.4443 10.9928 31.378 10.9803C31.3117 10.9677 31.2507 10.9362 31.2027 10.8897C31.1547 10.8433 31.122 10.7839 31.1086 10.7192C31.0952 10.6545 31.1018 10.5873 31.1275 10.5263C31.1532 10.4652 31.1969 10.413 31.253 10.3763C31.3091 10.3396 31.3752 10.3199 31.4427 10.3199C31.4873 10.3196 31.5316 10.3278 31.5729 10.3443C31.6143 10.3607 31.6519 10.385 31.6836 10.4157C31.7153 10.4464 31.7404 10.4829 31.7576 10.5232C31.7748 10.5635 31.7836 10.6067 31.7836 10.6503Z" fill="#DA840D"/>
<path d="M33.6393 11.9944C33.6393 12.0485 33.4645 12.0941 33.2518 12.0941C33.0391 12.0941 32.8672 12.0485 32.8672 11.9944C32.8672 11.9403 33.0391 11.8919 33.2518 11.8919C33.4645 11.8919 33.6393 11.9374 33.6393 11.9944Z" fill="#DA840D"/>
<path d="M34.8491 11.3222C34.8564 11.352 34.8539 11.3834 34.8421 11.4118C34.8304 11.4403 34.8098 11.4645 34.7834 11.4811C34.7569 11.4976 34.7258 11.5057 34.6944 11.5042C34.663 11.5028 34.6329 11.4918 34.6082 11.4728C34.5835 11.4539 34.5654 11.4279 34.5564 11.3985C34.5475 11.369 34.5481 11.3376 34.5583 11.3085C34.5684 11.2795 34.5876 11.2542 34.613 11.2362C34.6385 11.2183 34.6691 11.2085 34.7005 11.2082C34.7355 11.205 34.7705 11.215 34.7981 11.2362C34.8258 11.2574 34.844 11.2882 34.8491 11.3222Z" fill="#DA840D"/>
<path d="M33.6398 11.994C33.6331 12.0557 33.6082 12.1143 33.5681 12.1625C33.5281 12.2108 33.4746 12.2466 33.4142 12.2658C33.3538 12.285 33.2889 12.2867 33.2275 12.2707C33.1661 12.2547 33.1108 12.2217 33.0682 12.1756C33.0255 12.1295 32.9975 12.0724 32.9874 12.0111C32.9772 11.9498 32.9855 11.8869 33.0111 11.8301C33.0367 11.7732 33.0786 11.7248 33.1318 11.6908C33.1849 11.6567 33.247 11.6384 33.3105 11.638C33.3561 11.6402 33.4008 11.6512 33.442 11.6703C33.4832 11.6893 33.5202 11.7162 33.5507 11.7492C33.5813 11.7823 33.6049 11.821 33.6202 11.8629C33.6355 11.9049 33.6422 11.9495 33.6398 11.994Z" fill="#DA840D"/>
<path d="M35.5104 11.4218C35.5104 11.5415 35.3297 11.6383 35.1053 11.6383C34.881 11.6383 34.7003 11.5415 34.7003 11.4218C34.7003 11.3022 34.881 11.2083 35.1053 11.2083C35.3297 11.2083 35.5104 11.3051 35.5104 11.4218Z" fill="#DA840D"/>
<path d="M44.3943 11.7012C43.9864 8.16438 36.6786 5.35084 27.7216 5.35084C19.3416 5.35084 12.4068 7.81411 11.2121 11.0235C10.9362 11.4572 10.787 11.9566 10.7809 12.4673C10.7809 16.1465 18.5024 19.8229 27.7216 19.8229C36.9408 19.8229 44.5983 16.4057 44.5983 12.7207C44.5976 12.3713 44.5284 12.0252 44.3943 11.7012Z" fill="#C66720"/>
<path d="M45.4231 11.0633C45.4231 14.7426 37.4276 18.1655 27.8034 18.1655C18.1792 18.1655 10.1255 14.4891 10.1255 10.8213C10.1255 7.1534 18.1792 4.84106 27.8034 4.84106C37.4276 4.84106 45.4231 7.38407 45.4231 11.0633Z" fill="#E3AC8A"/>
<path d="M45.2686 10.3543C45.2686 14.0336 37.6927 16.8129 28.0773 16.8129C18.4618 16.8129 10.6528 13.8314 10.6528 10.1521C10.6528 6.4729 18.453 3.49135 28.0773 3.49135C37.7015 3.49135 45.2686 6.67509 45.2686 10.3543Z" fill="#DA840D"/>
<path d="M27.5529 14.6627C34.693 14.6627 40.4813 12.4506 40.4813 9.72192C40.4813 6.9932 34.693 4.78114 27.5529 4.78114C20.4127 4.78114 14.6244 6.9932 14.6244 9.72192C14.6244 12.4506 20.4127 14.6627 27.5529 14.6627Z" fill="#F0A508"/>
<path d="M18.8493 11.5441C18.8493 11.8289 18.52 12.0795 18.115 12.0795C17.71 12.0795 17.3807 11.8403 17.3807 11.5441C17.3807 11.248 17.71 11.0116 18.115 11.0116C18.52 11.0116 18.8493 11.2508 18.8493 11.5441Z" fill="#DA840D"/>
<path d="M17.3806 9.30285C17.3767 9.3813 17.3492 9.45689 17.3017 9.52024C17.2542 9.5836 17.1887 9.63195 17.1134 9.65931C17.0381 9.68666 16.9562 9.69183 16.8779 9.67416C16.7996 9.65649 16.7283 9.61676 16.6728 9.55989C16.6174 9.50302 16.5802 9.43151 16.566 9.35421C16.5517 9.27691 16.5609 9.19722 16.5926 9.12501C16.6242 9.05279 16.6767 8.99122 16.7438 8.94792C16.8109 8.90462 16.8894 8.88149 16.9698 8.88139C17.0252 8.8825 17.0797 8.8943 17.1304 8.91612C17.1811 8.93794 17.2268 8.96934 17.265 9.00852C17.3032 9.0477 17.3331 9.09388 17.3529 9.14439C17.3728 9.19491 17.3822 9.24876 17.3806 9.30285Z" fill="#DA840D"/>
<path d="M22.4915 12.1933C22.4996 12.331 22.4653 12.468 22.393 12.5864C22.3206 12.7049 22.2136 12.7994 22.0857 12.8577C21.9577 12.916 21.8149 12.9355 21.6755 12.9136C21.5361 12.8917 21.4067 12.8294 21.304 12.7348C21.2013 12.6402 21.1299 12.5176 21.0993 12.383C21.0686 12.2483 21.08 12.1078 21.1319 11.9795C21.1839 11.8512 21.274 11.7412 21.3907 11.6635C21.5074 11.5859 21.6452 11.5443 21.7863 11.544C21.8763 11.5414 21.9659 11.5561 22.05 11.5873C22.1341 11.6185 22.2111 11.6656 22.2766 11.7259C22.3421 11.7862 22.3948 11.8585 22.4316 11.9387C22.4685 12.0189 22.4888 12.1054 22.4915 12.1933Z" fill="#DA840D"/>
<path d="M20.9474 9.62476C20.9474 9.80416 20.7463 9.94655 20.4987 9.94655C20.251 9.94655 20.0529 9.80416 20.0529 9.62476C20.0529 9.44535 20.2539 9.30297 20.4987 9.30297C20.7434 9.30297 20.9474 9.4482 20.9474 9.62476Z" fill="#DA840D"/>
<path d="M25.4517 11.1513C25.4623 11.2407 25.4449 11.3312 25.4017 11.4108C25.3585 11.4903 25.2916 11.5552 25.2099 11.5967C25.1282 11.6383 25.0354 11.6545 24.944 11.6434C24.8526 11.6323 24.7668 11.5942 24.6979 11.5344C24.6291 11.4745 24.5806 11.3956 24.5587 11.3081C24.5368 11.2206 24.5426 11.1287 24.5754 11.0446C24.6081 10.9604 24.6663 10.888 24.7421 10.8368C24.818 10.7857 24.9079 10.7583 25.0001 10.7583C25.1132 10.7521 25.2243 10.79 25.309 10.8636C25.3936 10.9373 25.445 11.0407 25.4517 11.1513Z" fill="#DA840D"/>
<path d="M25.624 13.5234C25.624 13.7057 25.4084 13.8538 25.1403 13.8538C24.8722 13.8538 24.6566 13.7057 24.6566 13.5234C24.6566 13.3412 24.8722 13.1931 25.1403 13.1931C25.4084 13.1931 25.624 13.3412 25.624 13.5234Z" fill="#DA840D"/>
<path d="M23.6952 9.98945C23.6901 10.0552 23.6655 10.118 23.6244 10.1702C23.5833 10.2225 23.5276 10.2619 23.464 10.2837C23.4003 10.3054 23.3316 10.3086 23.2661 10.2928C23.2007 10.277 23.1414 10.2428 23.0955 10.1946C23.0496 10.1463 23.0191 10.086 23.0077 10.0211C22.9963 9.95613 23.0045 9.88935 23.0314 9.8289C23.0582 9.76846 23.1025 9.71698 23.1588 9.68075C23.2151 9.64453 23.281 9.62513 23.3484 9.62494C23.3958 9.62641 23.4423 9.63703 23.4854 9.65618C23.5285 9.67534 23.5673 9.70265 23.5996 9.73654C23.6318 9.77044 23.6568 9.81024 23.6733 9.85365C23.6897 9.89706 23.6971 9.94321 23.6952 9.98945Z" fill="#DA840D"/>
<path d="M28.7125 10.684C28.7125 10.8663 28.5028 11.0115 28.2434 11.0115C27.9841 11.0115 27.7743 10.8663 27.7743 10.684C27.7743 10.5018 27.9841 10.3537 28.2434 10.3537C28.5028 10.3537 28.7125 10.5018 28.7125 10.684Z" fill="#DA840D"/>
<path d="M28.7125 12.3901C28.7125 12.4983 28.5028 12.5866 28.2434 12.5866C27.9841 12.5866 27.7743 12.4983 27.7743 12.3901C27.7743 12.2819 27.9841 12.1936 28.2434 12.1936C28.5028 12.1936 28.7125 12.2819 28.7125 12.3901Z" fill="#DA840D"/>
<path d="M31.8856 11.2793C31.8856 11.4274 31.6933 11.5441 31.4602 11.5441C31.2271 11.5441 31.0348 11.4274 31.0348 11.2793C31.0348 11.1312 31.2271 11.0116 31.4602 11.0116C31.6933 11.0116 31.8856 11.1312 31.8856 11.2793Z" fill="#DA840D"/>
<path d="M31.3785 13.1819C31.3997 13.2712 31.3919 13.3646 31.3563 13.4493C31.3207 13.534 31.259 13.6058 31.1798 13.6548C31.1006 13.7037 31.0078 13.7273 30.9142 13.7224C30.8206 13.7174 30.7309 13.6842 30.6576 13.6272C30.5842 13.5702 30.5308 13.4923 30.5047 13.4044C30.4787 13.3164 30.4813 13.2227 30.5122 13.1362C30.543 13.0497 30.6007 12.9748 30.6771 12.9217C30.7535 12.8687 30.8449 12.8402 30.9386 12.8402C31.043 12.8297 31.1476 12.8596 31.2298 12.9235C31.312 12.9873 31.3654 13.0801 31.3785 13.1819Z" fill="#DA840D"/>
<path d="M34.9099 12.6293C34.8918 12.7135 34.8496 12.7909 34.7883 12.8527C34.727 12.9144 34.649 12.9579 34.5635 12.9781C34.4779 12.9984 34.3882 12.9946 34.3048 12.9671C34.2214 12.9396 34.1476 12.8896 34.0921 12.8228C34.0365 12.7561 34.0015 12.6753 33.9909 12.5899C33.9804 12.5045 33.9948 12.4179 34.0325 12.3402C34.0702 12.2624 34.1296 12.1967 34.2039 12.1506C34.2783 12.1045 34.3644 12.0799 34.4525 12.0797C34.5871 12.0948 34.7103 12.1607 34.7958 12.2634C34.8812 12.3661 34.9222 12.4974 34.9099 12.6293Z" fill="#DA840D"/>
<path d="M34.6535 10.1518C34.6535 10.2628 34.5078 10.354 34.3243 10.354C34.1407 10.354 33.995 10.2628 33.995 10.1518C33.995 10.0407 34.1407 9.94674 34.3243 9.94674C34.5078 9.94674 34.6535 10.0379 34.6535 10.1518Z" fill="#DA840D"/>
<path d="M37.4538 10.7469C37.4538 11.1883 37.2528 11.5443 37.0051 11.5443C36.7575 11.5443 36.5593 11.1883 36.5593 10.7469C36.5593 10.3056 36.7604 9.94674 37.0051 9.94674C37.2499 9.94674 37.4538 10.3056 37.4538 10.7469Z" fill="#DA840D"/>
<path d="M38.5728 9.93824C38.5716 9.97966 38.558 10.0198 38.5336 10.0537C38.5093 10.0876 38.4752 10.1137 38.4357 10.1288C38.3962 10.1439 38.3531 10.1473 38.3116 10.1385C38.2702 10.1297 38.2323 10.1092 38.2027 10.0796C38.1732 10.0499 38.1532 10.0123 38.1453 9.9716C38.1375 9.93089 38.1421 9.88881 38.1586 9.85064C38.175 9.81246 38.2027 9.77988 38.238 9.75697C38.2733 9.73405 38.3147 9.72182 38.3571 9.72181C38.3858 9.72218 38.4142 9.72807 38.4406 9.73915C38.4669 9.75023 38.4908 9.76628 38.5108 9.78637C38.5308 9.80647 38.5466 9.83023 38.5573 9.85628C38.5679 9.88234 38.5732 9.91019 38.5728 9.93824Z" fill="#DA840D"/>
<path d="M31.224 9.25444C31.224 9.45947 30.953 9.62464 30.6179 9.62464C30.2828 9.62464 30.0118 9.45947 30.0118 9.25444C30.0118 9.0494 30.2828 8.88139 30.6208 8.88139C30.9588 8.88139 31.224 9.0494 31.224 9.25444Z" fill="#DA840D"/>
<path d="M19.8138 7.33583C19.8138 7.46113 19.6011 7.56364 19.3388 7.56364C19.0766 7.56364 18.861 7.46113 18.861 7.33583C18.861 7.21053 19.0737 7.10802 19.3388 7.10802C19.604 7.10802 19.8138 7.21053 19.8138 7.33583Z" fill="#DA840D"/>
<path d="M22.5994 6.87987C22.5994 7.00517 22.3576 7.10768 22.0575 7.10768C21.7574 7.10768 21.5184 7.00517 21.5184 6.87987C21.5184 6.75457 21.7603 6.65205 22.0575 6.65205C22.3547 6.65205 22.5994 6.75457 22.5994 6.87987Z" fill="#DA840D"/>
<path d="M26.1193 7.43789C26.1193 7.62015 25.793 7.76823 25.388 7.76823C24.983 7.76823 24.6566 7.62015 24.6566 7.43789C24.6566 7.25564 24.983 7.11895 25.388 7.11895C25.793 7.11895 26.1193 7.25564 26.1193 7.43789Z" fill="#DA840D"/>
<path d="M28.7122 6.87935C28.7128 6.92508 28.6995 6.96996 28.6739 7.00826C28.6483 7.04657 28.6117 7.07657 28.5686 7.09447C28.5255 7.11237 28.478 7.11734 28.432 7.10877C28.386 7.10019 28.3437 7.07845 28.3104 7.04631C28.2771 7.01416 28.2543 6.97307 28.245 6.92825C28.2356 6.88343 28.2401 6.83691 28.2579 6.79459C28.2757 6.75228 28.3059 6.71608 28.3448 6.69061C28.3837 6.66514 28.4294 6.65153 28.4762 6.65153C28.5071 6.65115 28.5377 6.65677 28.5663 6.66805C28.5949 6.67933 28.621 6.69605 28.6429 6.71724C28.6649 6.73843 28.6823 6.76367 28.6942 6.7915C28.7061 6.81933 28.7122 6.84919 28.7122 6.87935Z" fill="#DA840D"/>
<path d="M28.2432 8.67952C28.2432 8.79343 28.0218 8.88171 27.745 8.88171C27.4682 8.88171 27.2467 8.79343 27.2467 8.67952C27.2467 8.56561 27.4711 8.47733 27.745 8.47733C28.0189 8.47733 28.2432 8.56846 28.2432 8.67952Z" fill="#DA840D"/>
<path d="M32.139 6.77692C32.1402 6.84305 32.1212 6.90802 32.0844 6.96355C32.0477 7.01909 31.9949 7.06268 31.9327 7.08877C31.8705 7.11487 31.8018 7.12228 31.7353 7.11008C31.6688 7.09787 31.6075 7.0666 31.5592 7.02023C31.5109 6.97387 31.4779 6.91452 31.4643 6.84974C31.4506 6.78496 31.457 6.71768 31.4827 6.65646C31.5083 6.59525 31.552 6.54287 31.6081 6.506C31.6643 6.46914 31.7305 6.44944 31.7981 6.44943C31.8425 6.44906 31.8865 6.45723 31.9277 6.47349C31.9688 6.48974 32.0063 6.51376 32.038 6.54417C32.0696 6.57458 32.0949 6.61079 32.1122 6.65072C32.1295 6.69066 32.1386 6.73354 32.139 6.77692Z" fill="#DA840D"/>
<path d="M33.9952 8.12104C33.9952 8.17799 33.8204 8.22356 33.6077 8.22356C33.3949 8.22356 33.223 8.17799 33.223 8.12104C33.223 8.06409 33.3949 8.02137 33.6077 8.02137C33.8204 8.02137 33.9952 8.06693 33.9952 8.12104Z" fill="#DA840D"/>
<path d="M35.2043 7.44957C35.2116 7.47945 35.2091 7.5108 35.1974 7.53927C35.1856 7.56774 35.165 7.59192 35.1386 7.60847C35.1121 7.62503 35.081 7.63313 35.0496 7.63166C35.0183 7.63018 34.9881 7.61921 34.9634 7.60026C34.9387 7.58131 34.9206 7.55532 34.9117 7.52588C34.9027 7.49644 34.9034 7.46501 34.9135 7.43594C34.9236 7.40688 34.9428 7.38161 34.9683 7.36365C34.9937 7.34568 35.0243 7.3359 35.0557 7.33566C35.0907 7.33238 35.1257 7.34237 35.1533 7.36358C35.181 7.38478 35.1992 7.41557 35.2043 7.44957Z" fill="#DA840D"/>
<path d="M33.995 8.1214C33.9993 8.16601 33.994 8.21101 33.9795 8.25351C33.965 8.29601 33.9415 8.33508 33.9107 8.36822C33.8798 8.40136 33.8422 8.42784 33.8003 8.44595C33.7583 8.46407 33.713 8.47343 33.6672 8.47343C33.6213 8.47343 33.576 8.46407 33.534 8.44595C33.4921 8.42784 33.4545 8.40136 33.4236 8.36822C33.3928 8.33508 33.3693 8.29601 33.3548 8.25351C33.3403 8.21101 33.335 8.16601 33.3393 8.1214C33.335 8.07679 33.3403 8.03179 33.3548 7.98929C33.3693 7.94679 33.3928 7.90771 33.4236 7.87457C33.4545 7.84144 33.4921 7.81496 33.534 7.79684C33.576 7.77873 33.6213 7.76937 33.6672 7.76937C33.713 7.76937 33.7583 7.77873 33.8003 7.79684C33.8422 7.81496 33.8798 7.84144 33.9107 7.87457C33.9415 7.90771 33.965 7.94679 33.9795 7.98929C33.994 8.03179 33.9993 8.07679 33.995 8.1214Z" fill="#DA840D"/>
<path d="M35.8628 7.55209C35.8628 7.6717 35.685 7.76852 35.4607 7.76852C35.2363 7.76852 35.0557 7.6717 35.0557 7.55209C35.0557 7.43249 35.2363 7.33567 35.4607 7.33567C35.685 7.33567 35.8628 7.43249 35.8628 7.55209Z" fill="#DA840D"/>
<path d="M45.3471 7.51523C45.3471 9.75923 42.3751 11.9064 37.8733 13.2391C34.577 14.1739 31.1596 14.6372 27.7275 14.6146C24.1523 14.6146 21.2152 13.6948 18.2489 13.4755C13.3013 13.0996 10.0496 9.57413 10.0496 7.26178C10.0496 3.58254 18.1062 1.28159 27.7275 1.28159C37.3488 1.28159 45.3471 3.83598 45.3471 7.51523Z" fill="#E3AC8A"/>
<path d="M45.1259 7.02791C45.1259 10.7072 37.3228 13.6887 27.6986 13.6887C18.0744 13.6887 10.2742 10.7072 10.2742 7.02791C10.2742 3.34867 18.0656 0.367113 27.6986 0.367113C37.3316 0.367113 45.1259 3.34867 45.1259 7.02791Z" fill="#DA840D"/>
<path d="M40.3764 6.39842C40.3764 9.12653 34.5868 11.3392 27.448 11.3392C20.3092 11.3392 14.5195 9.12653 14.5195 6.39842C14.5195 3.67031 20.3063 1.45479 27.448 1.45479C34.5897 1.45479 40.3764 3.66746 40.3764 6.39842Z" fill="#F0A508"/>
<path d="M18.7444 8.22116C18.7444 8.50593 18.4152 8.75369 18.0102 8.75369C17.6051 8.75369 17.2759 8.51448 17.2759 8.22116C17.2759 7.92785 17.6051 7.68864 18.0102 7.68864C18.4152 7.68864 18.7444 7.925 18.7444 8.22116Z" fill="#DA840D"/>
<path d="M17.2757 5.98023C17.2723 6.05883 17.2453 6.13472 17.1981 6.19846C17.1509 6.26221 17.0856 6.311 17.0103 6.33879C16.935 6.36658 16.853 6.37213 16.7745 6.35476C16.696 6.3374 16.6244 6.29787 16.5687 6.24109C16.513 6.18432 16.4755 6.1128 16.4611 6.03541C16.4466 5.95802 16.4557 5.87818 16.4872 5.8058C16.5188 5.73342 16.5714 5.6717 16.6385 5.62828C16.7056 5.58487 16.7843 5.56169 16.8648 5.56162C16.9199 5.56273 16.9743 5.57444 17.0247 5.59608C17.0752 5.61772 17.1208 5.64887 17.159 5.68774C17.1971 5.72662 17.2271 5.77246 17.2471 5.82264C17.2671 5.87283 17.2768 5.92638 17.2757 5.98023Z" fill="#DA840D"/>
<path d="M22.3866 8.86752C22.3953 9.00532 22.3615 9.14251 22.2896 9.26131C22.2176 9.38012 22.1108 9.47506 21.983 9.53383C21.8551 9.5926 21.7122 9.61249 21.5726 9.59092C21.4331 9.56935 21.3034 9.50732 21.2004 9.41286C21.0974 9.3184 21.0257 9.19588 20.9948 9.06117C20.9638 8.92645 20.975 8.78577 21.0269 8.65733C21.0787 8.5289 21.1688 8.41865 21.2855 8.34086C21.4022 8.26308 21.5402 8.22135 21.6814 8.22108C21.8626 8.21571 22.0385 8.28073 22.1707 8.4019C22.3029 8.52307 22.3805 8.6905 22.3866 8.86752Z" fill="#DA840D"/>
<path d="M20.8425 6.30179C20.8425 6.47835 20.6415 6.62358 20.3938 6.62358C20.1461 6.62358 19.948 6.47835 19.948 6.30179C19.948 6.12524 20.149 5.98 20.3967 5.98C20.6444 5.98 20.8425 6.12239 20.8425 6.30179Z" fill="#DA840D"/>
<path d="M25.35 7.8276C25.36 7.91644 25.3422 8.00616 25.299 8.08489C25.2557 8.16362 25.189 8.22766 25.1077 8.26854C25.0263 8.30942 24.9342 8.3252 24.8435 8.31381C24.7528 8.30242 24.6678 8.26438 24.5997 8.20474C24.5316 8.14509 24.4836 8.06665 24.4621 7.97978C24.4406 7.89291 24.4466 7.80171 24.4793 7.71824C24.512 7.63477 24.5698 7.56296 24.6452 7.51232C24.7205 7.46168 24.8098 7.43458 24.9013 7.43462C25.014 7.42917 25.1243 7.46738 25.2083 7.54096C25.2923 7.61454 25.3432 7.71755 25.35 7.8276Z" fill="#DA840D"/>
<path d="M25.519 10.197C25.519 10.3792 25.3034 10.5273 25.0353 10.5273C24.7673 10.5273 24.5516 10.3792 24.5516 10.197C24.5516 10.0147 24.7673 9.86948 25.0353 9.86948C25.3034 9.86948 25.519 10.0176 25.519 10.197Z" fill="#DA840D"/>
<path d="M23.6018 6.66345C23.5972 6.72932 23.5731 6.79246 23.5323 6.84511C23.4916 6.89776 23.436 6.93764 23.3723 6.95983C23.3087 6.98202 23.2399 6.98556 23.1742 6.97003C23.1085 6.95449 23.049 6.92055 23.0028 6.87237C22.9566 6.8242 22.9258 6.76388 22.9142 6.69884C22.9026 6.6338 22.9107 6.56687 22.9375 6.50626C22.9643 6.44566 23.0086 6.39402 23.065 6.35769C23.1214 6.32137 23.1875 6.30194 23.255 6.30179C23.3021 6.30326 23.3484 6.31379 23.3913 6.33276C23.4342 6.35174 23.4729 6.37879 23.5051 6.41238C23.5373 6.44597 23.5624 6.48543 23.579 6.52851C23.5956 6.57159 23.6033 6.61744 23.6018 6.66345Z" fill="#DA840D"/>
<path d="M28.6076 7.35815C28.6076 7.54041 28.3978 7.68849 28.1385 7.68849C27.8792 7.68849 27.681 7.54041 27.681 7.35815C27.681 7.1759 27.8908 7.02782 28.1502 7.02782C28.4095 7.02782 28.6076 7.1759 28.6076 7.35815Z" fill="#DA840D"/>
<path d="M28.6076 9.06374C28.6076 9.17196 28.3978 9.26024 28.1385 9.26024C27.8792 9.26024 27.681 9.17196 27.681 9.06374C27.681 8.95553 27.8908 8.86725 28.1502 8.86725C28.4095 8.86725 28.6076 8.95553 28.6076 9.06374Z" fill="#DA840D"/>
<path d="M31.7808 7.95348C31.7808 8.10156 31.5884 8.22117 31.3553 8.22117C31.1222 8.22117 30.9299 8.10156 30.9299 7.95348C30.9299 7.8054 31.1222 7.68864 31.3553 7.68864C31.5884 7.68864 31.7808 7.80825 31.7808 7.95348Z" fill="#DA840D"/>
<path d="M31.2738 9.85541C31.2486 9.94996 31.192 10.0337 31.1129 10.0934C31.0338 10.1532 30.9367 10.1856 30.8367 10.1856C30.7368 10.1856 30.6396 10.1532 30.5605 10.0934C30.4814 10.0337 30.4248 9.94996 30.3997 9.85541C30.4248 9.76086 30.4814 9.67714 30.5605 9.61739C30.6396 9.55764 30.7368 9.52522 30.8367 9.52522C30.9367 9.52522 31.0338 9.55764 31.1129 9.61739C31.192 9.67714 31.2486 9.76086 31.2738 9.85541Z" fill="#DA840D"/>
<path d="M34.8051 9.30607C34.8184 9.37209 34.8165 9.44016 34.7997 9.50539C34.7828 9.57063 34.7514 9.63141 34.7077 9.68336C34.664 9.73532 34.609 9.77717 34.5467 9.8059C34.4845 9.83463 34.4165 9.84952 34.3477 9.84952C34.2788 9.84952 34.2108 9.83463 34.1486 9.8059C34.0863 9.77717 34.0314 9.73532 33.9876 9.68336C33.9439 9.63141 33.9125 9.57063 33.8956 9.50539C33.8788 9.44016 33.8769 9.37209 33.8902 9.30607C33.8746 9.23894 33.8747 9.16924 33.8904 9.10214C33.9061 9.03504 33.9371 8.97226 33.981 8.91846C34.025 8.86467 34.0808 8.82123 34.1442 8.79138C34.2077 8.76153 34.2772 8.74603 34.3477 8.74603C34.4181 8.74603 34.4876 8.76153 34.5511 8.79138C34.6146 8.82123 34.6703 8.86467 34.7143 8.91846C34.7582 8.97226 34.7892 9.03504 34.8049 9.10214C34.8207 9.16924 34.8207 9.23894 34.8051 9.30607Z" fill="#DA840D"/>
<path d="M34.5486 6.83417C34.5486 6.94523 34.403 7.03635 34.2194 7.03635C34.0358 7.03635 33.8901 6.94523 33.8901 6.83417C33.8901 6.7231 34.0358 6.63198 34.2194 6.63198C34.403 6.63198 34.5486 6.71456 34.5486 6.83417Z" fill="#DA840D"/>
<path d="M37.3487 7.42113C37.3487 7.86252 37.1477 8.22133 36.9 8.22133C36.6524 8.22133 36.4542 7.86252 36.4542 7.42113C36.4542 6.97973 36.6524 6.62377 36.9 6.62377C37.1477 6.62377 37.3487 6.97973 37.3487 7.42113Z" fill="#DA840D"/>
<path d="M38.4619 6.61243C38.4613 6.65398 38.4482 6.69444 38.4241 6.72872C38.4001 6.763 38.3662 6.78956 38.3268 6.80508C38.2873 6.82059 38.2441 6.82436 38.2024 6.81591C38.1608 6.80746 38.1226 6.78717 38.0928 6.75759C38.0629 6.728 38.0427 6.69045 38.0346 6.64966C38.0265 6.60886 38.0309 6.56663 38.0473 6.52829C38.0637 6.48995 38.0914 6.45721 38.1268 6.43418C38.1621 6.41114 38.2037 6.39885 38.2462 6.39885C38.3037 6.3996 38.3585 6.42243 38.3989 6.4624C38.4392 6.50238 38.4619 6.55627 38.4619 6.61243Z" fill="#DA840D"/>
<path d="M31.1192 5.92863C31.1192 6.13367 30.8482 6.30169 30.5102 6.30169C30.1722 6.30169 29.9042 6.13367 29.9042 5.92863C29.9042 5.7236 30.1752 5.55843 30.5102 5.55843C30.8453 5.55843 31.1192 5.7236 31.1192 5.92863Z" fill="#DA840D"/>
<path d="M19.6973 4.01233C19.6973 4.13763 19.4846 4.24015 19.2195 4.24015C18.9543 4.24015 18.7445 4.13763 18.7445 4.01233C18.7445 3.88703 18.9572 3.78166 19.2195 3.78166C19.4817 3.78166 19.6973 3.88418 19.6973 4.01233Z" fill="#DA840D"/>
<path d="M22.4944 3.55351C22.4944 3.68166 22.2526 3.78133 21.9525 3.78133C21.6524 3.78133 21.4105 3.68166 21.4105 3.55351C21.4105 3.42536 21.6553 3.32569 21.9525 3.32569C22.2497 3.32569 22.4944 3.41682 22.4944 3.55351Z" fill="#DA840D"/>
<path d="M26.0144 4.112C26.0144 4.29425 25.688 4.44233 25.283 4.44233C24.878 4.44233 24.5516 4.29425 24.5516 4.112C24.5516 3.92974 24.878 3.78166 25.283 3.78166C25.688 3.78166 26.0144 3.92974 26.0144 4.112Z" fill="#DA840D"/>
<path d="M28.6074 3.55366C28.608 3.59939 28.5946 3.64427 28.569 3.68257C28.5435 3.72088 28.5068 3.75089 28.4637 3.76878C28.4207 3.78668 28.3731 3.79165 28.3271 3.78308C28.2812 3.7745 28.2388 3.75276 28.2055 3.72062C28.1722 3.68848 28.1495 3.64738 28.1401 3.60256C28.1308 3.55774 28.1353 3.51122 28.1531 3.4689C28.1708 3.42659 28.2011 3.39039 28.24 3.36492C28.2788 3.33945 28.3246 3.32584 28.3714 3.32584C28.4022 3.32546 28.4329 3.33108 28.4615 3.34236C28.4901 3.35364 28.5161 3.37036 28.5381 3.39155C28.56 3.41274 28.5775 3.43799 28.5894 3.46581C28.6013 3.49364 28.6074 3.5235 28.6074 3.55366Z" fill="#DA840D"/>
<path d="M28.1382 5.35602C28.1382 5.46708 27.9139 5.55821 27.64 5.55821C27.3661 5.55821 27.1417 5.46708 27.1417 5.35602C27.1417 5.24496 27.3661 5.15098 27.64 5.15098C27.9139 5.15098 28.1382 5.24211 28.1382 5.35602Z" fill="#DA840D"/>
<path d="M32.0314 3.45419C32.0331 3.51987 32.0148 3.58455 31.9787 3.63999C31.9426 3.69542 31.8905 3.73909 31.8289 3.76541C31.7673 3.79172 31.6991 3.7995 31.6329 3.78773C31.5668 3.77597 31.5058 3.7452 31.4576 3.69936C31.4095 3.65352 31.3764 3.59469 31.3626 3.53039C31.3489 3.46609 31.355 3.39924 31.3803 3.33838C31.4056 3.27752 31.4489 3.22541 31.5047 3.18872C31.5605 3.15203 31.6261 3.13243 31.6934 3.1324C31.7817 3.13164 31.8668 3.16503 31.9301 3.2253C31.9934 3.28556 32.0298 3.36784 32.0314 3.45419Z" fill="#DA840D"/>
<path d="M33.89 4.79819C33.89 4.8523 33.7152 4.89786 33.5025 4.89786C33.2898 4.89786 33.115 4.8523 33.115 4.79819C33.115 4.74409 33.2898 4.69567 33.5025 4.69567C33.7152 4.69567 33.89 4.74124 33.89 4.79819Z" fill="#DA840D"/>
<path d="M35.0994 4.12595C35.1066 4.15583 35.1042 4.18717 35.0924 4.21564C35.0806 4.24411 35.0601 4.26829 35.0336 4.28484C35.0071 4.30139 34.9761 4.3095 34.9447 4.30803C34.9133 4.30655 34.8831 4.29558 34.8584 4.27663C34.8337 4.25768 34.8156 4.23169 34.8067 4.20225C34.7977 4.17281 34.7984 4.14138 34.8085 4.11232C34.8187 4.08325 34.8378 4.05799 34.8633 4.04002C34.8888 4.02206 34.9193 4.01228 34.9508 4.01204C34.9857 4.00875 35.0207 4.01875 35.0484 4.03995C35.076 4.06116 35.0943 4.09195 35.0994 4.12595Z" fill="#DA840D"/>
<path d="M33.8902 4.79826C33.8834 4.86002 33.8585 4.91855 33.8185 4.96679C33.7785 5.01502 33.725 5.05091 33.6646 5.07011C33.6041 5.08931 33.5393 5.09101 33.4779 5.075C33.4165 5.05899 33.3611 5.02595 33.3185 4.97988C33.2759 4.9338 33.2478 4.87666 33.2377 4.81534C33.2276 4.75403 33.2358 4.69116 33.2615 4.63432C33.2871 4.57748 33.329 4.52911 33.3821 4.49504C33.4353 4.46096 33.4974 4.44265 33.5609 4.4423C33.6065 4.44448 33.6511 4.45543 33.6923 4.47452C33.7336 4.4936 33.7705 4.52045 33.8011 4.55351C33.8317 4.58658 33.8553 4.62522 33.8706 4.66721C33.8859 4.70921 33.8925 4.75374 33.8902 4.79826Z" fill="#DA840D"/>
<path d="M35.7578 4.22562C35.7578 4.34522 35.5771 4.44204 35.3557 4.44204C35.1343 4.44204 34.9507 4.34522 34.9507 4.22562C34.9507 4.10601 35.1313 4.01204 35.3557 4.01204C35.5801 4.01204 35.7578 4.10601 35.7578 4.22562Z" fill="#DA840D"/>
<path d="M30.344 22.0213C30.278 21.7753 30.1244 21.5605 29.9107 21.4153C29.697 21.2702 29.4374 21.2044 29.1785 21.2296C27.4302 21.3521 27.2845 24.214 27.8994 25.4642C28.0824 25.6025 28.3126 25.6672 28.5429 25.645C28.7731 25.6227 28.9859 25.5153 29.1377 25.3446C29.6972 24.7323 29.8749 23.8467 30.073 23.0664C30.1702 22.7209 30.2605 22.3725 30.344 22.0213Z" fill="#EEBE30"/>
<path d="M43.3222 7.15031C42.7143 6.92069 42.1536 6.58596 41.6671 6.16215C41.0857 5.61113 40.5499 5.016 40.0646 4.38233C39.339 3.51093 38.2842 3.1692 37.177 3.04106C35.9445 2.89582 34.6711 3.16351 33.4299 3.10086C32.7642 3.08314 32.1118 2.91449 31.5243 2.6082C30.9415 2.28357 30.484 1.75389 29.9858 1.29541C29.0097 0.441095 27.7713 0.441095 26.5388 0.247451C25.7224 0.106599 24.8966 0.0237986 24.0679 -0.000300489C23.22 -0.0202345 21.7369 -0.0316253 21.1687 0.757191C20.5393 1.04196 20.3179 1.79945 20.1751 2.43734C20.0947 2.96368 19.9669 3.48207 19.7934 3.9865C19.5345 4.56018 19.134 5.06212 18.6279 5.44737C17.5177 6.3501 16.1453 6.83421 14.8895 7.46355C13.8697 7.9733 12.6196 8.69662 12.0719 9.71894C11.7426 10.3312 11.7805 11.3792 12.3632 11.8319C13.0829 12.373 13.6307 11.3535 13.7852 10.8381C13.9279 10.3711 13.9804 9.8955 14.3679 9.54523C14.89 9.10229 15.5105 8.78442 16.1803 8.61688C16.7426 8.4631 17.3458 8.4631 17.8994 8.29509C18.564 8.05061 19.189 7.71398 19.7555 7.29554C20.4198 6.86269 21.0667 6.44123 21.8563 6.25328C22.5119 6.1052 23.5259 6.12798 24.0417 6.61778C24.3245 6.95263 24.5679 7.31753 24.7672 7.70561C25.033 8.06758 25.385 8.36081 25.7929 8.55992C26.6145 9.01841 27.5557 9.22059 28.4153 9.63636C28.7027 9.7824 28.9504 9.99325 29.1379 10.2515C29.167 10.2942 29.1932 10.3369 29.2195 10.3825C29.2406 10.4147 29.26 10.448 29.2777 10.4821C30.216 12.1737 29.0359 13.9649 29.0679 15.7504C29.0679 16.7129 29.7818 18.2877 30.9881 17.516C31.0697 17.4647 31.1455 17.4078 31.2212 17.3508C31.3582 16.1035 31.4689 14.8249 31.9118 13.6488C32.3285 12.5553 32.8967 11.5443 32.8355 10.3397C32.8005 9.67623 32.4771 9.06682 32.3984 8.41184C32.2877 7.50058 33.1268 7.08766 33.8815 6.90825C34.9583 6.62821 36.0996 6.70431 37.1275 7.12468C39.0622 7.9021 40.624 9.50537 42.7744 9.7702C43.6252 9.87557 44.8577 9.74457 45.1957 8.83615C45.5337 7.92773 43.9282 7.40375 43.3222 7.15031Z" fill="#EEBE30"/>
<path opacity="0.5" d="M31.4834 8.33815C31.3951 8.03117 31.2321 7.74963 31.0083 7.51755C30.7846 7.28548 30.5067 7.10977 30.1984 7.00542C29.7555 6.89151 29.0562 7.17913 29.1115 7.70311C29.1124 7.7136 29.1154 7.72381 29.1204 7.73311C29.1254 7.74242 29.1323 7.75062 29.1407 7.75721C28.8493 8.36378 29.6943 9.40889 29.9857 9.85313C30.1991 10.1376 30.3336 10.4711 30.3761 10.8214C30.4257 11.2741 30.2771 11.7212 30.3208 12.1683C30.3382 12.3677 30.4927 13.2191 30.9035 12.8774C31.3726 12.4901 31.4222 11.613 31.5183 11.0606C31.7122 10.1617 31.7002 9.232 31.4834 8.33815Z" fill="white"/>
<path opacity="0.5" d="M39.9567 5.39026C39.4803 4.61782 38.7207 4.05168 37.8325 3.80693C36.9351 3.55348 34.7818 3.2801 34.5545 4.56442C34.5526 4.59035 34.5592 4.61619 34.5734 4.63821C34.5875 4.66022 34.6085 4.67727 34.6332 4.68687C34.6906 4.72783 34.7417 4.77675 34.7847 4.83211C34.7969 4.85534 34.8163 4.87426 34.8401 4.88621C34.8636 4.89447 34.8894 4.89447 34.9129 4.88621C35.0793 5.0352 35.2788 5.14438 35.4957 5.20516C36.0298 5.32078 36.5745 5.38374 37.1216 5.39311C37.8791 5.4643 38.3016 5.78324 38.829 6.27875C39.1204 6.56352 39.9188 7.16154 40.3296 6.70875C40.6443 6.38981 40.1286 5.65225 39.9567 5.39026Z" fill="white"/>
<path opacity="0.5" d="M14.0621 8.96743C13.9343 8.95183 13.8051 8.95183 13.6774 8.96743C13.678 8.96182 13.6771 8.95616 13.6751 8.9509C13.673 8.94564 13.6698 8.9409 13.6656 8.93706C13.6613 8.93321 13.6563 8.93036 13.6508 8.92871C13.6453 8.92707 13.6394 8.92667 13.6337 8.92756C13.4208 8.96074 13.2186 9.0418 13.0431 9.16436C12.8677 9.28691 12.7237 9.44761 12.6226 9.63379C12.5527 9.77618 12.4158 10.2745 12.7159 10.3002C13.016 10.3258 13.252 10.0154 13.421 9.85307C13.666 9.60598 13.8974 9.34649 14.1145 9.07564C14.1209 9.06553 14.1247 9.05399 14.1254 9.04209C14.1261 9.0302 14.1237 9.01832 14.1185 9.00755C14.1133 8.99678 14.1054 8.98747 14.0955 8.98046C14.0856 8.97345 14.0741 8.96897 14.0621 8.96743Z" fill="white"/>
<path opacity="0.5" d="M49.2079 25.3871C48.9497 25.3334 48.6831 25.3309 48.4239 25.3797C48.1647 25.4286 47.9181 25.5278 47.6989 25.6714C47.4796 25.8151 47.292 26.0003 47.1474 26.2161C47.0027 26.4319 46.9038 26.6739 46.8565 26.9277C46.8548 26.9369 46.8552 26.9463 46.8576 26.9552C46.86 26.9642 46.8645 26.9725 46.8706 26.9796C46.8767 26.9867 46.8844 26.9924 46.8931 26.9962C46.9017 27 46.9111 27.0019 46.9206 27.0018C46.922 27.0207 46.922 27.0398 46.9206 27.0587C46.8186 27.503 46.2796 27.708 45.9387 27.896C45.6852 28.0326 45.4229 28.1551 45.1607 28.2804C44.2866 28.7133 42.9112 29.2714 42.6403 30.419C42.6359 30.4315 42.6356 30.445 42.6392 30.4577C42.6428 30.4704 42.6503 30.4817 42.6607 30.4902C43.1851 30.8433 43.7883 30.3165 44.1991 29.9862C45.0282 29.3441 46.0005 28.9021 47.0372 28.6962C48.1852 28.4513 50.3268 28.5253 50.7406 26.9875C50.9912 26.0336 49.881 25.5039 49.2079 25.3871Z" fill="white"/>
<path d="M30.4286 3.30011C30.3266 3.16057 30.0672 2.86156 29.8924 2.84163C29.7933 2.84163 29.7555 2.64798 29.6622 2.67646C29.569 2.70494 29.4262 2.77613 29.298 2.67646C29.255 2.63732 29.2092 2.60116 29.1611 2.56825C29.1343 2.54989 29.1037 2.53755 29.0714 2.53214C29.0392 2.52672 29.0061 2.52836 28.9746 2.53692C28.893 2.56825 28.8609 2.68785 28.7619 2.61096C28.6628 2.53407 28.4268 2.65083 28.3685 2.76474C28.3489 2.79598 28.3332 2.82945 28.3219 2.86441C27.9751 2.91282 27.6255 3.43395 27.4944 3.67601C27.3718 3.90895 27.3145 4.16945 27.3283 4.43105C27.3421 4.69264 27.4266 4.94599 27.573 5.16536C27.8906 5.69504 28.5375 5.76623 29.1086 5.78332C29.3336 5.80881 29.5616 5.78943 29.7788 5.72636C29.9796 5.64026 30.1536 5.50368 30.2829 5.33053C30.8598 4.63569 30.9705 4.03197 30.4286 3.30011Z" fill="#48264C"/>
<path d="M30.4286 3.30039C30.3291 3.16339 30.2116 3.03987 30.0789 2.93304C30.0911 3.40361 29.9356 3.86369 29.639 4.23458C29.3424 4.60547 28.9232 4.86413 28.453 4.96631C28.1215 5.03755 27.7769 5.02679 27.4507 4.93498C27.4856 5.01746 27.5265 5.0974 27.5731 5.17419C27.8907 5.70386 28.5375 5.77506 29.1086 5.79214C29.3337 5.81763 29.5616 5.79826 29.7788 5.73519C29.9797 5.64909 30.1536 5.51251 30.2829 5.33936C30.8598 4.63597 30.9705 4.03226 30.4286 3.30039Z" fill="#300D33"/>
<path d="M30.9413 31.646C30.8476 31.4109 30.6966 31.2017 30.5013 31.0366C30.4693 30.8601 30.4285 30.6864 30.3906 30.5098C30.3876 30.4926 30.3806 30.4762 30.3703 30.4619C30.3599 30.4476 30.3464 30.4358 30.3307 30.4274C30.3151 30.4189 30.2976 30.414 30.2798 30.4129C30.2619 30.4119 30.244 30.4149 30.2274 30.4215C29.9652 30.5411 29.9069 30.3873 29.7263 30.2478C29.6974 30.2304 29.6641 30.2212 29.6301 30.2212C29.5962 30.2212 29.5629 30.2304 29.534 30.2478C29.2426 30.4415 28.9337 29.983 28.7065 30.2478C28.5735 30.4474 28.4265 30.6377 28.2665 30.8174C28.0773 30.9342 27.9032 31.0729 27.7478 31.2303C27.6362 31.3273 27.5382 31.4384 27.4564 31.5606C27.4235 31.6122 27.3934 31.6654 27.3661 31.7201C27.3428 31.7713 27.3224 31.8254 27.3049 31.8767C27.3037 31.8823 27.3037 31.8882 27.3049 31.8938C27.187 32.2659 27.1942 32.6651 27.3253 33.0329C27.5468 33.6907 28.2461 33.9242 28.8725 34.0751C29.1149 34.1566 29.3716 34.1895 29.6272 34.172C29.8718 34.1229 30.0989 34.012 30.2857 33.8502C31.0899 33.2237 31.358 32.5829 30.9413 31.646Z" fill="#48264C"/>
<path d="M30.9415 31.6461C30.867 31.4718 30.769 31.308 30.6501 31.1591C30.5473 31.6824 30.2613 32.1545 29.8413 32.4943C29.4213 32.8341 28.8935 33.0205 28.3482 33.0215C27.9625 33.0223 27.5828 32.9283 27.2439 32.7482C27.2623 32.8447 27.2876 32.9398 27.3197 33.0329C27.5411 33.6907 28.2404 33.9243 28.8669 34.0752C29.1092 34.1567 29.3659 34.1896 29.6215 34.172C29.8661 34.123 30.0932 34.012 30.28 33.8502C31.0901 33.2237 31.3581 32.583 30.9415 31.6461Z" fill="#300D33"/>
<path d="M25.6732 2.80468C25.5829 2.63097 25.3498 2.25222 25.1575 2.19812C25.0584 2.17249 25.0584 1.99308 24.9622 1.97599C24.9331 1.7197 24.8136 1.45201 24.5077 1.50612C24.4378 1.50612 24.2513 1.69692 24.1784 1.58871C24.1427 1.52477 24.0849 1.47532 24.0153 1.44917C23.8725 1.39506 23.7472 1.51751 23.6656 1.61149C23.5287 1.76811 23.3538 1.53745 23.1761 1.61149C23.091 1.66057 23.0217 1.73189 22.9759 1.81743C22.93 1.90296 22.9096 1.99931 22.9168 2.0956C22.9168 2.11268 22.9168 2.12408 22.9168 2.14116C22.6969 2.30416 22.5008 2.49578 22.334 2.7107C22.1537 2.94786 22.0408 3.2275 22.007 3.52114C21.9733 3.81479 22.0197 4.11194 22.1417 4.38231C22.3981 5.02874 23.1091 5.23663 23.7414 5.34769C23.98 5.41334 24.229 5.43459 24.4756 5.41034C24.716 5.34845 24.9358 5.22679 25.1138 5.05722C25.9034 4.37092 26.1365 3.7188 25.6732 2.80468Z" fill="#48264C"/>
<path d="M25.6734 2.8044C25.5859 2.63442 25.4772 2.47564 25.3499 2.33168C25.2771 2.8619 25.0177 3.35081 24.6163 3.71454C24.2149 4.07826 23.6965 4.29412 23.15 4.32507C22.7664 4.34449 22.3838 4.2701 22.037 4.10865C22.0601 4.20555 22.0903 4.30072 22.1273 4.39342C22.3837 5.03985 23.0947 5.24773 23.727 5.35879C23.971 5.42243 24.2251 5.43983 24.4758 5.41005C24.7161 5.34816 24.936 5.22651 25.1139 5.05694C25.9036 4.37064 26.1367 3.71851 25.6734 2.8044Z" fill="#300D33"/>
<path d="M37.0047 5.10568C36.9144 4.88641 36.6668 4.40514 36.4453 4.32541C36.32 4.28269 36.3258 4.02355 36.1976 4.04064C36.0228 4.05772 35.8567 4.10329 35.7198 3.94097C35.6764 3.87625 35.6287 3.81441 35.577 3.75587C35.5487 3.72259 35.513 3.69606 35.4726 3.67829C35.4322 3.66053 35.3882 3.652 35.3439 3.65335C35.2273 3.67328 35.1487 3.82706 35.0525 3.69037C34.9156 3.50811 34.6038 3.6448 34.4931 3.7815C34.4588 3.81821 34.4286 3.85829 34.4027 3.9011C33.9365 3.86408 33.3217 4.47064 33.0799 4.75541C32.8493 5.03775 32.6961 5.37289 32.635 5.72917C32.5738 6.08544 32.6066 6.45109 32.7302 6.79153C32.9808 7.60313 33.8054 7.89644 34.5397 8.09294C34.8197 8.19085 35.117 8.2325 35.4138 8.21539C35.7044 8.15789 35.9734 8.02398 36.1918 7.8281C37.1708 7.04213 37.4972 6.2647 37.0047 5.10568Z" fill="#48264C"/>
<path d="M37.005 5.10582C36.9168 4.89212 36.8013 4.69022 36.6611 4.50495C36.5475 5.13448 36.2119 5.70526 35.7127 6.11827C35.2135 6.53128 34.5821 6.76046 33.928 6.76604C33.4748 6.76307 33.03 6.64533 32.6372 6.42431C32.6567 6.54477 32.685 6.66372 32.7217 6.78027C32.9723 7.59187 33.7969 7.88519 34.5312 8.08168C34.8111 8.17959 35.1085 8.22124 35.4053 8.20413C35.6959 8.14663 35.9648 8.01273 36.1833 7.81684C37.171 7.04226 37.4974 6.26484 37.005 5.10582Z" fill="#300D33"/>
<path d="M36.5767 29.2113C36.4631 28.9579 36.163 28.4054 35.8978 28.3171C35.7463 28.2687 35.7463 27.9669 35.6064 27.9839C35.3996 28.0067 35.2014 28.0608 35.0237 27.8757C34.9712 27.8002 34.9127 27.7288 34.8489 27.6622C34.8122 27.623 34.7669 27.5924 34.7165 27.5727C34.666 27.5529 34.6117 27.5446 34.5575 27.5482C34.4176 27.571 34.3244 27.7476 34.1991 27.5938C34.0301 27.3831 33.66 27.5454 33.526 27.702C33.4859 27.7463 33.4499 27.794 33.4182 27.8444C32.8588 27.8045 32.1274 28.5165 31.8389 28.8354C31.5666 29.1586 31.3865 29.5463 31.317 29.9594C31.2474 30.3725 31.2907 30.7962 31.4427 31.1876C31.7544 32.1217 32.748 32.4492 33.6309 32.6656C33.9754 32.7805 34.3402 32.8261 34.7032 32.7994C35.0486 32.7316 35.3693 32.5753 35.6327 32.3467C36.7865 31.4411 37.1653 30.5355 36.5767 29.2113Z" fill="#48264C"/>
<path d="M36.5769 29.2116C36.469 28.9638 36.3279 28.7311 36.1573 28.5196C36.0109 29.2602 35.6062 29.9281 35.0121 30.4095C34.418 30.8909 33.6714 31.156 32.8997 31.1594C32.3564 31.1602 31.8214 31.0281 31.3438 30.775C31.3669 30.9152 31.402 31.0534 31.4486 31.1879C31.7604 32.122 32.754 32.4495 33.6369 32.6659C33.9814 32.7808 34.3462 32.8263 34.7092 32.7997C35.0545 32.7319 35.3753 32.5756 35.6387 32.3469C36.7867 31.4414 37.1655 30.5358 36.5769 29.2116Z" fill="#300D33"/>
<path d="M23.4008 27.1613C23.4008 27.1613 24.1788 26.8765 24.6304 27.8818C25.0821 28.887 25.2453 29.8752 25.6969 30.345C25.821 30.4505 25.9189 30.5823 25.983 30.7304C26.0471 30.8784 26.0758 31.0388 26.0669 31.1993C26.0669 31.1993 24.7936 30.5187 24.4673 30.1571C23.983 29.6658 23.5685 29.1131 23.2347 28.5139C22.8676 27.7906 22.6083 27.1129 22.6083 27.1129L23.4008 27.1613Z" fill="#5F825C"/>
<path d="M23.0948 26.9844C23.0948 26.9844 23.29 26.1956 22.2207 25.8738C21.1513 25.552 20.1227 25.5036 19.5982 25.1192C19.4755 25.0097 19.3285 24.9294 19.1689 24.8844C19.0092 24.8395 18.841 24.8311 18.6775 24.86C18.6775 24.86 19.5137 26.019 19.9188 26.2839C20.4746 26.696 21.0841 27.0341 21.7311 27.2891C22.5062 27.5739 23.2259 27.7391 23.2259 27.7391L23.0948 26.9844Z" fill="#5F825C"/>
<path d="M22.9434 27.3695C22.9434 27.3695 24.3799 28.3718 24.3391 29.7359C24.2983 31.1 24.2983 31.7806 23.465 32.5409C22.6316 33.3012 21.0465 33.344 20.2248 33.7028C19.4031 34.0616 18.4212 34.3862 18.1852 34.5856C17.9492 34.7849 17.448 34.9871 16.7108 34.5856C15.9736 34.184 15.5453 34.2267 15.6851 33.1019C15.8942 31.6543 16.2515 30.2309 16.7516 28.8531C17.1595 27.8108 17.5208 27.0078 18.6747 26.6888C19.7808 26.411 20.9496 26.495 22.0022 26.9281C22.7278 27.2897 22.9434 27.3695 22.9434 27.3695Z" fill="#ED6366"/>
<path d="M15.8567 32.017C16.5088 32.2564 17.1998 32.3789 17.8964 32.3786C20.7519 32.3786 23.0654 30.4165 23.0654 27.9988C23.0662 27.7995 23.0506 27.6005 23.0188 27.4037C23.3277 27.6457 24.3621 28.5427 24.3271 29.7046C24.2863 31.0658 24.2863 31.7493 23.453 32.5096C22.6196 33.27 21.0345 33.3127 20.2128 33.6715C19.3912 34.0303 18.4092 34.3549 18.1732 34.5543C17.9372 34.7536 17.436 34.9558 16.6988 34.5543C15.9616 34.1528 15.5333 34.1926 15.6732 33.0706C15.7169 32.7745 15.7781 32.4128 15.8567 32.017Z" fill="#C73A54"/>
<path d="M23.5811 30.3592C23.7763 30.3848 23.823 30.0573 23.8375 29.8181C23.8524 29.7582 23.8524 29.6957 23.8375 29.6358V29.6159C23.8375 29.5931 23.8055 29.5874 23.8026 29.6159C23.796 29.6164 23.7896 29.6185 23.784 29.622C23.7784 29.6254 23.7738 29.6302 23.7705 29.6358C23.7356 29.7127 23.3101 30.325 23.5811 30.3592Z" fill="#E7D8C8"/>
<path d="M23.1733 29.1234C23.176 29.1269 23.1795 29.1298 23.1835 29.1318C23.1876 29.1338 23.1921 29.1348 23.1966 29.1348C23.2011 29.1348 23.2056 29.1338 23.2096 29.1318C23.2137 29.1298 23.2172 29.1269 23.2199 29.1234C23.2771 29.0778 23.3234 29.0205 23.3556 28.9556C23.3879 28.8907 23.4052 28.8196 23.4064 28.7475C23.4221 28.7084 23.4309 28.667 23.4326 28.625C23.4332 28.619 23.4321 28.613 23.4295 28.6076C23.427 28.6021 23.423 28.5974 23.4179 28.5939C23.4129 28.5905 23.4071 28.5884 23.4009 28.5878C23.3948 28.5873 23.3886 28.5883 23.3831 28.5909C23.3831 28.5909 23.3481 28.5909 23.351 28.5909C23.2675 28.6498 23.2053 28.7331 23.1734 28.8288C23.1415 28.9245 23.1414 29.0277 23.1733 29.1234Z" fill="#E7D8C8"/>
<path d="M22.3313 28.4764C22.5003 28.6074 22.579 28.3083 22.6227 28.1119C22.6476 28.0524 22.6653 27.9903 22.6751 27.9268C22.6758 27.9196 22.6742 27.9123 22.6704 27.9061C22.6666 27.8999 22.6609 27.895 22.6541 27.8922C22.6473 27.8893 22.6398 27.8886 22.6325 27.8903C22.6253 27.8919 22.6188 27.8957 22.614 27.9011C22.5324 27.9951 22.1652 28.3568 22.3313 28.4764Z" fill="#E7D8C8"/>
<path d="M22.2235 29.7469C22.2259 29.7498 22.229 29.7522 22.2326 29.7539C22.2361 29.7555 22.2399 29.7564 22.2439 29.7564C22.2478 29.7564 22.2516 29.7555 22.2552 29.7539C22.2587 29.7522 22.2618 29.7498 22.2643 29.7469C22.3199 29.694 22.3688 29.6347 22.4099 29.5703C22.5113 29.4592 22.5745 29.3197 22.5906 29.1716C22.5906 29.1489 22.5673 29.1204 22.5411 29.1318L22.4886 29.166C22.3021 29.2998 22.0807 29.5589 22.2235 29.7469Z" fill="#E7D8C8"/>
<path d="M22.5147 31.0202C22.6225 31.0857 22.6866 30.9348 22.7215 30.7782C22.7692 30.6982 22.7971 30.6085 22.8031 30.5162C22.8037 30.5102 22.8026 30.5042 22.8001 30.4987C22.7975 30.4933 22.7935 30.4886 22.7885 30.4851C22.7834 30.4816 22.7776 30.4795 22.7714 30.479C22.7653 30.4784 22.7592 30.4795 22.7536 30.482H22.7186C22.7186 30.482 22.7186 30.482 22.7186 30.502C22.6419 30.5789 22.5816 30.6699 22.5409 30.7696C22.5117 30.8351 22.436 30.9775 22.5147 31.0202Z" fill="#E7D8C8"/>
<path d="M23.0655 31.7258C23.1821 31.7999 23.3044 31.6945 23.3569 31.592C23.3857 31.5222 23.4072 31.4497 23.421 31.3756C23.4557 31.3183 23.4766 31.254 23.4822 31.1876C23.4891 31.1803 23.493 31.1706 23.493 31.1606C23.493 31.1506 23.4891 31.1409 23.4822 31.1335V31.1136C23.4822 31.0908 23.4443 31.068 23.421 31.088C23.3248 31.1563 22.8878 31.6091 23.0655 31.7258Z" fill="#E7D8C8"/>
<path d="M21.9352 32.1187C22.0342 32.2526 22.1304 32.1187 22.1974 31.9877C22.2385 31.9521 22.2712 31.9082 22.2933 31.859C22.3155 31.8099 22.3265 31.7566 22.3256 31.703C22.3255 31.6979 22.3241 31.693 22.3217 31.6886C22.3192 31.6842 22.3156 31.6804 22.3113 31.6776C22.3071 31.6748 22.3021 31.6731 22.297 31.6725C22.2919 31.672 22.2867 31.6726 22.2819 31.6745C22.1449 31.7257 21.8128 31.9536 21.9352 32.1187Z" fill="#E7D8C8"/>
<path d="M21.3868 30.4702C21.4713 30.3703 21.5693 30.2822 21.6782 30.2082C21.6841 30.2035 21.6913 30.2007 21.6989 30.2002C21.7065 30.1996 21.7141 30.2012 21.7207 30.2049C21.7273 30.2086 21.7326 30.2142 21.7359 30.2208C21.7393 30.2275 21.7405 30.235 21.7394 30.2424C21.7363 30.2847 21.7255 30.3262 21.7073 30.3648V30.4075C21.6925 30.5266 21.6418 30.6386 21.5616 30.7293C21.5004 30.7977 21.3577 30.8318 21.2994 30.7293C21.2411 30.6268 21.3344 30.5186 21.3868 30.4702Z" fill="#E7D8C8"/>
<path d="M21.224 29.4653C21.2473 29.5535 21.3638 29.545 21.4221 29.4994C21.4611 29.465 21.4927 29.4234 21.5153 29.377C21.5695 29.3121 21.602 29.2326 21.6086 29.1492C21.6088 29.1428 21.6076 29.1365 21.6048 29.1307C21.6021 29.125 21.598 29.1199 21.5929 29.116C21.5877 29.1121 21.5817 29.1095 21.5753 29.1083C21.5689 29.1071 21.5624 29.1075 21.5561 29.1093C21.4732 29.1412 21.3993 29.1919 21.3405 29.2574C21.2881 29.3058 21.2007 29.3855 21.224 29.4653Z" fill="#E7D8C8"/>
<path d="M21.7252 27.3381C21.7348 27.3352 21.7453 27.3359 21.7544 27.3401C21.7636 27.3443 21.7708 27.3517 21.7747 27.3609C21.7966 27.4458 21.7929 27.5351 21.7639 27.618C21.735 27.7009 21.682 27.7738 21.6115 27.8279C21.6061 27.8318 21.5997 27.8345 21.593 27.8356C21.5863 27.8367 21.5794 27.8363 21.5729 27.8343C21.5664 27.8324 21.5605 27.829 21.5555 27.8244C21.5506 27.8198 21.5468 27.8142 21.5445 27.8079C21.5356 27.788 21.5297 27.7669 21.527 27.7453C21.5004 27.6655 21.5061 27.5788 21.543 27.503C21.5798 27.4273 21.6451 27.3682 21.7252 27.3381Z" fill="#E7D8C8"/>
<path d="M20.7197 28.904C20.8071 28.9752 20.8799 28.904 20.9324 28.7901C20.999 28.7252 21.048 28.6452 21.0749 28.5572C21.1019 28.4692 21.106 28.376 21.0868 28.286C21.0828 28.2781 21.0766 28.2714 21.0688 28.2669C21.0611 28.2623 21.0521 28.2601 21.0431 28.2604C20.912 28.2775 20.8012 28.4569 20.7517 28.5452C20.7022 28.6335 20.6089 28.8186 20.7197 28.904Z" fill="#E7D8C8"/>
<path d="M20.6879 27.2689C20.7048 27.2486 20.7233 27.2295 20.7433 27.212C20.7498 27.2075 20.7574 27.2048 20.7654 27.204C20.7733 27.2033 20.7814 27.2045 20.7887 27.2077C20.796 27.2108 20.8023 27.2157 20.8071 27.222C20.812 27.2282 20.815 27.2356 20.8161 27.2433C20.8243 27.3091 20.817 27.3759 20.7948 27.4386C20.7726 27.5013 20.736 27.5582 20.6879 27.605C20.6884 27.6125 20.6884 27.6202 20.6879 27.6277C20.679 27.6452 20.6657 27.6602 20.6492 27.6712C20.6327 27.6822 20.6136 27.6889 20.5937 27.6906C20.5738 27.6923 20.5538 27.689 20.5356 27.681C20.5174 27.673 20.5016 27.6605 20.4897 27.6448C20.3645 27.5195 20.5422 27.3373 20.6879 27.2689Z" fill="#E7D8C8"/>
<path d="M19.6971 28.3117C19.7553 28.1937 19.8474 28.0947 19.9622 28.027C19.9688 28.0222 19.9768 28.0196 19.985 28.0193C19.9932 28.019 20.0013 28.0212 20.0082 28.0255C20.0151 28.0298 20.0205 28.0361 20.0238 28.0434C20.027 28.0508 20.0279 28.059 20.0263 28.0668C20.0227 28.1198 20.0099 28.1718 19.9884 28.2206C19.9884 28.2377 19.9884 28.2548 19.9884 28.269C19.9821 28.332 19.9685 28.3942 19.9476 28.4541C19.9289 28.5122 19.8883 28.561 19.834 28.5908C19.83 28.5979 19.8241 28.6039 19.8169 28.608C19.8097 28.6121 19.8015 28.6143 19.7932 28.6143C19.7849 28.6143 19.7767 28.6121 19.7695 28.608C19.7624 28.6039 19.7565 28.5979 19.7524 28.5908C19.6388 28.531 19.6738 28.3829 19.6971 28.3117Z" fill="#E7D8C8"/>
<path d="M19.4899 27.6226C19.4947 27.6257 19.5003 27.6273 19.506 27.6273C19.5117 27.6273 19.5172 27.6257 19.522 27.6226C19.5609 27.5864 19.5969 27.5473 19.6298 27.5058C19.7034 27.4457 19.7655 27.3734 19.8134 27.2923C19.8333 27.2566 19.8414 27.2159 19.8367 27.1755V27.1556C19.8367 27.1356 19.8367 27.1214 19.8075 27.13C19.7967 27.1171 19.7828 27.107 19.7671 27.1005C19.7513 27.0941 19.7342 27.0915 19.7172 27.0929C19.522 27.0958 19.318 27.4831 19.4899 27.6226Z" fill="#E7D8C8"/>
<path d="M18.3132 27.9788C18.3714 28.087 18.5084 27.9788 18.5579 27.919C18.6373 27.8293 18.6924 27.7216 18.7182 27.6058C18.7385 27.5669 18.7495 27.5241 18.7502 27.4805C18.7511 27.4741 18.7505 27.4677 18.7486 27.4616C18.7466 27.4556 18.7432 27.45 18.7388 27.4454C18.7343 27.4407 18.7288 27.4371 18.7227 27.4348C18.7166 27.4325 18.7101 27.4316 18.7036 27.4321C18.6355 27.4415 18.5709 27.4672 18.5155 27.507C18.4601 27.5467 18.4156 27.5992 18.386 27.6599C18.3365 27.7424 18.2607 27.882 18.3132 27.9788Z" fill="#E7D8C8"/>
<path d="M18.6016 29.1235C18.6365 29.2118 18.7298 29.1691 18.7647 29.1235C18.7997 29.078 18.7968 29.0637 18.8114 29.0353C18.869 28.9736 18.9099 28.8988 18.9303 28.8177C18.9506 28.7366 18.9498 28.6518 18.9279 28.5711C18.9259 28.5657 18.9226 28.5608 18.9183 28.5568C18.914 28.5528 18.9088 28.5499 18.9032 28.5482C18.8975 28.5466 18.8915 28.5462 18.8857 28.5472C18.8799 28.5482 18.8744 28.5505 18.8696 28.554C18.788 28.6264 18.7242 28.716 18.6832 28.816C18.6482 28.89 18.5608 29.021 18.6016 29.1235Z" fill="#E7D8C8"/>
<path d="M19.7874 29.616C19.8185 29.4729 19.9 29.345 20.0176 29.2544C20.0227 29.249 20.0293 29.2451 20.0366 29.2431C20.0439 29.2412 20.0516 29.2412 20.0588 29.2433C20.0661 29.2454 20.0726 29.2494 20.0777 29.2548C20.0827 29.2603 20.0861 29.267 20.0875 29.2743C20.0924 29.3273 20.0855 29.3808 20.0671 29.4309C20.0598 29.4939 20.0351 29.5537 19.9955 29.6039C19.956 29.6541 19.9032 29.6927 19.8428 29.7157H19.8136C19.8065 29.7167 19.7993 29.716 19.7925 29.7137C19.7857 29.7115 19.7795 29.7077 19.7744 29.7028C19.7693 29.6978 19.7655 29.6918 19.7632 29.6851C19.7609 29.6785 19.7602 29.6714 19.7612 29.6644L19.7874 29.616Z" fill="#E7D8C8"/>
<path d="M20.6383 29.9519C20.6444 29.948 20.6513 29.9456 20.6586 29.945C20.6658 29.9444 20.6731 29.9456 20.6797 29.9484C20.6863 29.9513 20.6922 29.9557 20.6966 29.9612C20.7011 29.9668 20.7041 29.9734 20.7053 29.9804C20.7053 29.9804 20.7053 29.9804 20.7053 30.0003C20.7053 30.1598 20.5917 30.416 20.414 30.4303C20.4091 30.4311 20.4042 30.4309 20.3995 30.4297C20.3947 30.4286 20.3903 30.4264 20.3864 30.4235C20.3826 30.4205 20.3794 30.4168 20.3772 30.4126C20.3749 30.4084 20.3735 30.4037 20.3732 30.399C20.3782 30.3093 20.4048 30.222 20.4509 30.1443C20.497 30.0666 20.5612 30.0007 20.6383 29.9519Z" fill="#E7D8C8"/>
<path d="M19.6388 30.4698C19.6753 30.4342 19.7164 30.4036 19.7611 30.3786C19.7844 30.3786 19.8252 30.3786 19.8252 30.4043C19.8194 30.5183 19.7719 30.6264 19.6912 30.709C19.6578 30.7616 19.6091 30.8032 19.5513 30.8286C19.5436 30.8314 19.535 30.8312 19.5274 30.828C19.5198 30.8248 19.5138 30.8189 19.5106 30.8115C19.5106 30.8115 19.5106 30.7915 19.5106 30.7801C19.5089 30.7726 19.5089 30.7649 19.5106 30.7574C19.5008 30.7024 19.5077 30.6459 19.5305 30.5948C19.5533 30.5436 19.5909 30.5002 19.6388 30.4698Z" fill="#E7D8C8"/>
<path d="M18.8725 29.6701C18.8844 29.6693 18.8962 29.6729 18.9054 29.6804C18.9146 29.6878 18.9205 29.6984 18.922 29.71C18.9264 29.7345 18.9264 29.7595 18.922 29.784C18.9275 29.8255 18.9236 29.8677 18.9105 29.9076C18.8974 29.9475 18.8754 29.984 18.8462 30.0147C18.8074 30.0841 18.7473 30.1398 18.6743 30.1741C18.6568 30.1741 18.6364 30.1741 18.6277 30.1542C18.5636 30.0061 18.6627 29.6672 18.8725 29.6701Z" fill="#E7D8C8"/>
<path d="M17.5585 29.4909C17.5604 29.4968 17.5636 29.5023 17.5678 29.5069C17.5719 29.5116 17.5771 29.5154 17.5828 29.518C17.5885 29.5207 17.5947 29.5222 17.6011 29.5224C17.6074 29.5227 17.6137 29.5216 17.6196 29.5194C17.7099 29.4782 17.783 29.4078 17.8265 29.3202C17.87 29.2326 17.8813 29.133 17.8586 29.0381C17.8558 29.0322 17.8518 29.027 17.8469 29.0227C17.8419 29.0184 17.836 29.0152 17.8297 29.0133C17.8233 29.0114 17.8167 29.0109 17.8101 29.0117C17.8035 29.0126 17.7972 29.0148 17.7916 29.0182C17.7257 29.0635 17.6701 29.1217 17.6284 29.189C17.5935 29.2306 17.5689 29.2795 17.5568 29.3319C17.5447 29.3843 17.5452 29.4388 17.5585 29.4909Z" fill="#E7D8C8"/>
<path d="M17.6868 30.59C17.6863 30.5314 17.7024 30.4739 17.7333 30.4236C17.7641 30.3734 17.8085 30.3325 17.8616 30.3053C17.8681 30.3025 17.8752 30.3013 17.8822 30.3018C17.8893 30.3023 17.8961 30.3044 17.9021 30.3081C17.9082 30.3117 17.9132 30.3167 17.9168 30.3227C17.9204 30.3286 17.9224 30.3354 17.9228 30.3423C17.9307 30.3989 17.9248 30.4565 17.9056 30.5105C17.8864 30.5644 17.8543 30.6132 17.8121 30.6527C17.7995 30.6697 17.7837 30.6842 17.7654 30.6954C17.7599 30.6983 17.7539 30.7001 17.7476 30.7007C17.7413 30.7013 17.735 30.7006 17.729 30.6988C17.7231 30.6969 17.7175 30.6939 17.7128 30.6899C17.708 30.6859 17.7041 30.681 17.7013 30.6755C17.7 30.6723 17.6993 30.6689 17.6993 30.6655C17.6993 30.6621 17.7 30.6587 17.7013 30.6555C17.6934 30.6344 17.6885 30.6124 17.6868 30.59Z" fill="#E7D8C8"/>
<path d="M20.3559 31.003C20.3611 31.0026 20.3663 31.0032 20.3713 31.0049C20.3762 31.0066 20.3807 31.0093 20.3846 31.0127C20.3884 31.0162 20.3915 31.0204 20.3935 31.0251C20.3956 31.0298 20.3967 31.0349 20.3967 31.04C20.3964 31.1159 20.374 31.1902 20.3322 31.2542C20.2905 31.3182 20.231 31.3693 20.1607 31.4016C20.1512 31.4045 20.141 31.4045 20.1315 31.4016H20.0907C20.0861 31.4025 20.0813 31.4023 20.0767 31.4011C20.0721 31.3999 20.0678 31.3977 20.0642 31.3947C20.0606 31.3917 20.0577 31.388 20.0557 31.3838C20.0538 31.3795 20.0528 31.375 20.0529 31.3703C20.0689 31.2896 20.1049 31.2139 20.1577 31.1498C20.2105 31.0858 20.2785 31.0354 20.3559 31.003Z" fill="#E7D8C8"/>
<path d="M20.6647 31.797C20.6638 31.8047 20.6649 31.8124 20.6679 31.8195C20.6709 31.8266 20.6756 31.8329 20.6817 31.8377C20.6878 31.8425 20.6951 31.8458 20.7028 31.8471C20.7105 31.8485 20.7185 31.8479 20.7259 31.8454H20.7463C20.7506 31.8483 20.7557 31.8498 20.7609 31.8498C20.7661 31.8498 20.7712 31.8483 20.7755 31.8454L20.7959 31.8255C20.8524 31.7868 20.9004 31.7374 20.937 31.6801C20.9735 31.6229 20.9979 31.559 21.0086 31.4923C21.0097 31.4858 21.0089 31.479 21.0064 31.4729C21.0039 31.4667 20.9998 31.4613 20.9944 31.4572C20.9891 31.4531 20.9827 31.4505 20.9759 31.4497C20.9692 31.4489 20.9624 31.4498 20.9561 31.4524C20.8629 31.4948 20.7855 31.5645 20.7347 31.6518C20.7015 31.6951 20.6777 31.7445 20.6647 31.797Z" fill="#E7D8C8"/>
<path d="M20.4924 32.8C20.5293 32.7239 20.5831 32.6568 20.6497 32.6035C20.6781 32.5731 20.7093 32.5455 20.743 32.5209C20.7525 32.5179 20.7627 32.5179 20.7721 32.5209C20.7781 32.5163 20.7853 32.5135 20.7929 32.5129C20.8004 32.5123 20.808 32.514 20.8146 32.5177C20.8212 32.5213 20.8265 32.5269 20.8299 32.5336C20.8332 32.5402 20.8344 32.5477 20.8333 32.5551C20.8221 32.6226 20.791 32.6854 20.7439 32.7359C20.6969 32.7865 20.6358 32.8226 20.5682 32.8399H20.5449C20.5387 32.8439 20.5315 32.8459 20.5241 32.8457C20.5168 32.8454 20.5097 32.8429 20.5039 32.8385C20.498 32.8341 20.4938 32.828 20.4917 32.8211C20.4897 32.8141 20.4899 32.8068 20.4924 32.8Z" fill="#E7D8C8"/>
<path d="M19.5484 32.3098C19.551 32.2685 19.5628 32.2283 19.5829 32.1919C19.603 32.1555 19.631 32.1238 19.665 32.0991C19.71 32.0537 19.7662 32.0204 19.8281 32.0023C19.8544 32.0023 19.8893 32.0023 19.8893 32.0364C19.8847 32.1174 19.8541 32.1949 19.8018 32.2578C19.7494 32.3207 19.6781 32.3658 19.5979 32.3867C19.5918 32.3875 19.5856 32.3871 19.5796 32.3855C19.5736 32.384 19.5681 32.3812 19.5632 32.3775C19.5583 32.3738 19.5542 32.3692 19.5512 32.3639C19.5481 32.3587 19.5462 32.3529 19.5455 32.3469C19.5426 32.3445 19.5404 32.3416 19.5389 32.3382C19.5375 32.3349 19.5369 32.3312 19.5372 32.3276C19.5375 32.324 19.5386 32.3205 19.5406 32.3174C19.5425 32.3143 19.5452 32.3117 19.5484 32.3098Z" fill="#E7D8C8"/>
<path d="M18.8755 31.1426H18.8988C18.9082 31.1389 18.9183 31.1376 18.9283 31.1385C18.9384 31.1394 18.948 31.1427 18.9566 31.1479C18.9651 31.1532 18.9722 31.1604 18.9773 31.1688C18.9825 31.1773 18.9855 31.1868 18.9862 31.1967C18.9687 31.3419 18.8434 31.5298 18.6948 31.5384C18.6715 31.5384 18.6395 31.5213 18.6424 31.4957C18.6412 31.4209 18.6628 31.3475 18.7042 31.2846C18.7457 31.2218 18.8053 31.1723 18.8755 31.1426Z" fill="#E7D8C8"/>
<path d="M18.4034 32.4638C18.4625 32.3791 18.547 32.3144 18.6453 32.2787C18.6529 32.2756 18.6612 32.2745 18.6693 32.2755C18.6775 32.2766 18.6852 32.2797 18.6917 32.2847C18.6982 32.2896 18.7033 32.2961 18.7064 32.3035C18.7095 32.311 18.7105 32.3191 18.7094 32.3271C18.6554 32.493 18.5387 32.6325 18.383 32.7172C18.3764 32.7224 18.3686 32.7257 18.3602 32.7269C18.3518 32.7281 18.3433 32.727 18.3355 32.7237C18.3277 32.7205 18.321 32.7153 18.316 32.7086C18.311 32.702 18.308 32.6941 18.3073 32.6859C18.3044 32.6441 18.3116 32.6022 18.3283 32.5636C18.345 32.5251 18.3707 32.4908 18.4034 32.4638Z" fill="#E7D8C8"/>
<path d="M17.6341 31.5524C17.6363 31.495 17.6528 31.439 17.6823 31.3894C17.7117 31.3397 17.7532 31.2979 17.8031 31.2676C17.8264 31.2676 17.8701 31.2676 17.8789 31.2875C17.8896 31.3629 17.878 31.4397 17.8454 31.5088C17.8129 31.5779 17.7608 31.6365 17.6953 31.6777C17.687 31.6841 17.6769 31.688 17.6663 31.6888C17.6558 31.6895 17.6452 31.6871 17.636 31.6818C17.6269 31.6766 17.6196 31.6688 17.6151 31.6594C17.6106 31.65 17.6091 31.6395 17.6108 31.6292C17.617 31.6032 17.6247 31.5775 17.6341 31.5524Z" fill="#E7D8C8"/>
<path d="M16.8998 30.6669C16.9093 30.6331 16.9297 30.6031 16.9581 30.5815L16.9756 30.5616C16.9959 30.536 17.0513 30.5445 17.0513 30.5815C17.0493 30.6437 17.0291 30.704 16.993 30.7552C16.9911 30.7927 16.9809 30.8294 16.9634 30.8628C16.9458 30.8961 16.9211 30.9255 16.8911 30.9489C16.8855 30.9523 16.8792 30.9543 16.8726 30.9547C16.866 30.955 16.8595 30.9537 16.8536 30.9508C16.8477 30.948 16.8427 30.9437 16.8391 30.9383C16.8354 30.933 16.8333 30.9268 16.8328 30.9204C16.8253 30.8309 16.8489 30.7416 16.8998 30.6669Z" fill="#E7D8C8"/>
<path d="M17.6253 28.2065L17.6632 28.1581C17.6836 28.1382 17.7302 28.1581 17.7302 28.1781C17.7357 28.2348 17.7278 28.2921 17.7071 28.3454C17.6864 28.3987 17.6534 28.4467 17.6108 28.4856V28.5027C17.6063 28.5069 17.6008 28.5098 17.5948 28.5112C17.5888 28.5127 17.5825 28.5125 17.5765 28.5107C17.5706 28.509 17.5653 28.5058 17.5611 28.5014C17.5568 28.4969 17.5539 28.4915 17.5525 28.4856C17.5496 28.4677 17.5496 28.4494 17.5525 28.4315C17.5407 28.3912 17.5413 28.3483 17.5543 28.3083C17.5672 28.2683 17.5919 28.2329 17.6253 28.2065Z" fill="#E7D8C8"/>
<path d="M17.2757 32.8996C17.2787 32.9049 17.2832 32.9094 17.2885 32.9125C17.2939 32.9156 17.3001 32.9172 17.3063 32.9172C17.3125 32.9172 17.3187 32.9156 17.3241 32.9125C17.3294 32.9094 17.3339 32.9049 17.3369 32.8996L17.3602 32.8739C17.4192 32.8289 17.4677 32.7721 17.5024 32.7073C17.5371 32.6424 17.5571 32.5711 17.5613 32.498C17.562 32.4901 17.5604 32.4821 17.5568 32.475C17.5531 32.4678 17.5474 32.4619 17.5405 32.4577C17.5335 32.4536 17.5255 32.4514 17.5173 32.4515C17.5091 32.4516 17.5011 32.4539 17.4942 32.4582C17.369 32.5465 17.2203 32.7486 17.2757 32.8996Z" fill="#E7D8C8"/>
<path d="M16.5793 32.3014C16.5864 32.2641 16.6059 32.2301 16.6347 32.2046C16.6459 32.1858 16.6596 32.1686 16.6755 32.1534C16.6798 32.1475 16.6855 32.1427 16.692 32.1394C16.6986 32.1361 16.7059 32.1344 16.7133 32.1344C16.7207 32.1344 16.728 32.1361 16.7346 32.1394C16.7412 32.1427 16.7469 32.1475 16.7512 32.1534C16.7743 32.2159 16.7743 32.2844 16.7512 32.347C16.7358 32.4113 16.7013 32.4697 16.6521 32.515C16.6474 32.5185 16.6419 32.5208 16.6361 32.5218C16.6303 32.5228 16.6243 32.5225 16.6186 32.5208C16.6129 32.5191 16.6078 32.5162 16.6035 32.5122C16.5992 32.5083 16.5959 32.5034 16.5939 32.4979C16.5769 32.4682 16.5669 32.4352 16.5643 32.4013C16.5618 32.3673 16.5669 32.3333 16.5793 32.3014Z" fill="#E7D8C8"/>
<path d="M16.6989 33.2724C16.7052 33.2678 16.7127 33.2649 16.7205 33.2641C16.7284 33.2632 16.7363 33.2645 16.7435 33.2677C16.7506 33.2709 16.7568 33.2759 16.7613 33.2823C16.7657 33.2886 16.7684 33.296 16.7689 33.3037C16.7763 33.3724 16.7684 33.4418 16.7457 33.5071C16.7231 33.5725 16.6863 33.6323 16.6378 33.6825C16.6378 33.6825 16.6378 33.6996 16.6378 33.7053C16.6349 33.712 16.63 33.7178 16.6238 33.7218C16.6176 33.7259 16.6103 33.728 16.6028 33.728C16.5953 33.728 16.588 33.7259 16.5818 33.7218C16.5756 33.7178 16.5707 33.712 16.5678 33.7053C16.5484 33.6282 16.5503 33.5475 16.5734 33.4715C16.5964 33.3954 16.6398 33.3267 16.6989 33.2724Z" fill="#E7D8C8"/>
<path d="M17.7741 33.6911C17.7838 33.6884 17.7943 33.6889 17.8037 33.6925C17.8132 33.6961 17.8212 33.7026 17.8265 33.7111C17.8297 33.7157 17.8313 33.7211 17.8313 33.7267C17.8313 33.7323 17.8297 33.7377 17.8265 33.7424C17.8275 33.749 17.8275 33.7557 17.8265 33.7623C17.8262 33.8178 17.8126 33.8725 17.7868 33.9219C17.761 33.9714 17.7237 34.0142 17.6779 34.0471C17.6726 34.0511 17.6665 34.0539 17.6599 34.0552C17.6534 34.0565 17.6466 34.0563 17.6401 34.0547C17.6336 34.053 17.6276 34.0499 17.6226 34.0456C17.6175 34.0414 17.6135 34.036 17.6109 34.03C17.6095 34.0244 17.6095 34.0185 17.6109 34.0129C17.6055 34.0134 17.6001 34.0127 17.5951 34.0109C17.5901 34.009 17.5855 34.006 17.5819 34.0022C17.5782 33.9983 17.5755 33.9937 17.5739 33.9886C17.5724 33.9836 17.5721 33.9782 17.573 33.973C17.5805 33.9136 17.6027 33.8568 17.6377 33.8077C17.6728 33.7585 17.7196 33.7185 17.7741 33.6911Z" fill="#E7D8C8"/>
<path d="M19.1609 33.0048C19.1669 33.0009 19.1739 32.9985 19.1811 32.9979C19.1883 32.9973 19.1956 32.9985 19.2022 33.0013C19.2089 33.0041 19.2147 33.0085 19.2192 33.0141C19.2237 33.0197 19.2267 33.0263 19.2279 33.0332C19.2308 33.1197 19.2078 33.2051 19.1617 33.2789C19.1156 33.3528 19.0485 33.4119 18.9686 33.449C18.9545 33.4543 18.9389 33.4543 18.9248 33.449L18.8899 33.4718C18.8847 33.4736 18.8791 33.4742 18.8736 33.4735C18.8682 33.4728 18.863 33.4708 18.8584 33.4677C18.8539 33.4647 18.8501 33.4606 18.8475 33.4559C18.8449 33.4511 18.8434 33.4459 18.8433 33.4405C18.8556 33.348 18.8911 33.2599 18.9465 33.1839C19.0018 33.1079 19.0755 33.0464 19.1609 33.0048Z" fill="#E7D8C8"/>
<path d="M21.527 32.808C21.533 32.7947 21.5409 32.7822 21.5503 32.771C21.5456 32.7503 21.5456 32.729 21.5503 32.7083C21.5831 32.6464 21.6366 32.5971 21.7018 32.5688C21.7251 32.5688 21.7572 32.5688 21.7659 32.5859C21.7775 32.6259 21.7775 32.6683 21.7659 32.7083C21.7567 32.7546 21.73 32.7958 21.6912 32.8238C21.6523 32.8517 21.6041 32.8644 21.5561 32.8592C21.5459 32.8554 21.5373 32.8482 21.532 32.8388C21.5267 32.8294 21.5249 32.8185 21.527 32.808Z" fill="#E7D8C8"/>
</g>
<defs>
<clipPath id="clip0_53_1864">
<rect width="56" height="38.6207" fill="white"/>
</clipPath>
</defs>
</svg>
