<svg width="18" height="19" viewBox="0 0 18 19" fill="none" xmlns="http://www.w3.org/2000/svg">
<mask id="mask0_51_5224" style="mask-type:alpha" maskUnits="userSpaceOnUse" x="2" y="1" width="15" height="14">
<path fill-rule="evenodd" clip-rule="evenodd" d="M2.25006 1.75H16.1227V14.761H2.25006V1.75Z" fill="white"/>
</mask>
<g mask="url(#mask0_51_5224)">
<path fill-rule="evenodd" clip-rule="evenodd" d="M9.18531 2.875C6.56406 2.875 4.73706 4.9285 4.73706 6.77125C4.73706 8.3305 4.30431 9.05125 3.92181 9.68725C3.61506 10.198 3.37281 10.6015 3.37281 11.4782C3.49806 12.8927 4.43181 13.636 9.18531 13.636C13.9126 13.636 14.8756 12.8597 15.0001 11.4295C14.9978 10.6015 14.7556 10.198 14.4488 9.68725C14.0663 9.05125 13.6336 8.3305 13.6336 6.77125C13.6336 4.9285 11.8066 2.875 9.18531 2.875ZM9.18532 14.761C5.67832 14.761 2.50882 14.5135 2.25007 11.5262C2.24782 10.2902 2.62507 9.66175 2.95807 9.10825C3.29482 8.54725 3.61207 8.0185 3.61207 6.77125C3.61207 4.3465 5.85157 1.75 9.18532 1.75C12.5191 1.75 14.7586 4.3465 14.7586 6.77125C14.7586 8.0185 15.0758 8.54725 15.4126 9.10825C15.7456 9.66175 16.1228 10.2902 16.1228 11.4782C15.8611 14.5135 12.6923 14.761 9.18532 14.761Z" fill="#04004F"/>
</g>
<path fill-rule="evenodd" clip-rule="evenodd" d="M9.1487 17.875H9.1472C8.30645 17.8743 7.5107 17.5038 6.90695 16.831C6.6992 16.6008 6.71795 16.2445 6.94895 16.0375C7.17995 15.829 7.53545 15.8478 7.7432 16.0795C8.1317 16.5123 8.63045 16.75 9.14795 16.75H9.1487C9.66845 16.75 10.1695 16.5123 10.5587 16.0788C10.7672 15.8485 11.1227 15.8298 11.353 16.0375C11.584 16.2453 11.6027 16.6015 11.395 16.8318C10.789 17.5045 9.9917 17.875 9.1487 17.875Z" fill="#04004F"/>
<circle cx="12.5" cy="3.5" r="3.5" fill="white"/>
<circle cx="12.5" cy="3.5" r="2.5" fill="#FF0000"/>
</svg>
